# Blender 3.1.0
# www.blender.org
mtllib CityGenTrees2.mtl
o Cube
v -0.500000 -0.050000 0.500000
v -0.500000 0.050000 0.500000
v -0.500000 -0.050000 -0.500000
v -0.500000 0.088899 -0.500000
v 0.500000 -0.050000 0.500000
v 0.500000 0.066951 0.500000
v 0.500000 -0.050000 -0.500000
v 0.500000 0.001219 -0.500000
v 0.000000 -0.050000 -0.500000
v 0.000000 0.007597 -0.500000
v 0.000000 -0.050000 0.500000
v -0.113210 0.031209 0.367061
v -0.500000 -0.050000 0.000000
v -0.500000 0.007544 0.000000
v 0.500000 -0.050000 0.000000
v 0.500000 0.026133 0.000000
v -0.148699 0.044684 0.291110
v 0.250000 0.050000 -0.500000
v 0.250000 -0.050000 0.500000
v 0.250000 -0.050000 -0.500000
v 0.225304 0.066560 0.492971
v 0.258855 0.087420 -0.067693
v -0.250000 -0.050000 -0.500000
v -0.199990 0.035816 0.399244
v -0.250000 0.075794 -0.500000
v -0.250000 -0.050000 0.500000
v -0.221693 0.029838 0.308940
v -0.026187 0.063213 0.007888
v -0.003943 0.035274 0.500744
v -0.251144 0.021961 0.169051
v -0.266797 0.025209 0.499093
v -0.155162 0.070498 0.303916
v -0.139336 0.060192 0.351160
v -0.210984 0.059144 0.317551
v -0.194387 0.063716 0.386612
v 0.145898 0.047596 -0.158499
v 0.090799 0.036028 -0.136980
v 0.079823 0.067137 -0.054378
v 0.151917 0.066562 -0.109934
v 0.410233 0.032763 -0.308542
v 0.350830 0.042483 -0.306217
v 0.360996 0.049804 -0.228370
v 0.401762 0.037070 -0.212320
v 0.394054 0.045835 0.178467
v 0.316055 0.073692 0.098597
v 0.310288 0.056756 0.197169
v 0.399548 0.071684 0.258963
v 0.325816 0.098709 0.128630
v 0.374027 0.081490 0.177998
v 0.377423 0.097468 0.227752
v 0.322251 0.088241 0.189557
v 0.352069 0.066097 -0.297124
v 0.396384 0.058846 -0.298859
v 0.390065 0.062060 -0.227077
v 0.359653 0.071559 -0.239050
v 0.088834 0.074276 -0.121802
v 0.126254 0.082133 -0.136416
v 0.130341 0.095013 -0.103434
v 0.081251 0.088970 -0.082572
v -0.334246 0.042493 -0.287038
v -0.388269 0.052344 -0.328618
v -0.441286 0.037935 -0.258181
v -0.357863 0.048818 -0.211159
v -0.385728 0.080283 -0.300850
v -0.356639 0.074979 -0.278461
v -0.369356 0.078385 -0.237604
v -0.414274 0.072525 -0.262923
v -0.288237 0.027026 0.208611
v -0.351806 0.015888 0.180096
v -0.364917 0.039284 0.224682
v -0.312047 0.025260 0.254015
v 0.130175 0.074500 0.005569
v 0.030236 0.066700 0.036193
v 0.029573 0.047933 0.082904
v 0.123752 0.063181 0.100125
v 0.052128 0.096525 0.039760
v 0.099030 0.100186 0.025388
v 0.096016 0.094874 0.069764
v 0.051817 0.087717 0.061682
v -0.348376 0.041893 0.194952
v -0.310637 0.048506 0.211881
v -0.324772 0.047457 0.238836
v -0.356159 0.055783 0.221422
v 0.101832 0.044978 0.425252
v 0.169425 0.058832 0.383187
v 0.149829 0.057043 0.337705
v 0.108764 0.052195 0.366800
v 0.150903 0.075911 0.382361
v 0.112628 0.068066 0.406180
v 0.116553 0.072153 0.373082
v 0.139806 0.074898 0.356606
v 0.108835 0.044711 -0.459597
v 0.044760 0.017867 -0.434312
v 0.063054 0.037476 -0.373406
v 0.103529 0.043177 -0.393580
v 0.062782 0.048564 -0.427685
v 0.096706 0.062776 -0.441073
v 0.093897 0.061964 -0.406120
v 0.072467 0.058945 -0.395439
vn -0.5000 -0.0000 -0.0000
vn -0.0000 -0.0000 -0.5000
vn 0.5000 -0.0000 -0.0000
vn -0.0000 0.0001 0.5000
vn -0.4435 0.0019 -0.2301
vn -0.1416 0.0033 0.4784
vn -0.0000 -0.0000 0.5000
vn -0.4956 -0.0000 -0.0662
vn -0.2714 0.0027 0.4191
vn -0.1189 0.0023 0.4851
vn -0.4996 0.0019 0.0035
vn -0.4317 0.0159 -0.1961
vn -0.4881 0.0015 0.1076
vn -0.0783 0.0428 0.2462
vn -0.4493 0.0218 -0.0279
vn 0.1345 0.0419 -0.2373
vn -0.4402 0.0232 -0.0479
vn 0.3312 0.0197 0.3186
vn -0.1559 0.0020 -0.4747
vn 0.2766 0.0013 0.4163
vn 0.4722 0.0034 -0.1608
vn -0.2702 0.0025 -0.4200
vn 0.2910 0.0282 -0.2933
vn -0.2851 0.0229 -0.3409
vn -0.3900 0.0240 -0.2002
vn 0.4220 0.0216 -0.1585
vn 0.4470 0.0131 -0.1817
vn 0.4589 0.0169 -0.1041
vn 0.4295 0.0246 -0.0722
vn 0.4635 0.0159 0.1002
vn 0.3584 0.0319 0.1402
vn -0.3529 0.0293 -0.1986
vn 0.4627 0.0047 -0.1835
vn 0.0838 0.0145 -0.4711
vn 0.3931 0.0022 -0.3083
vn -0.3078 0.0021 0.3934
vn 0.4846 0.0027 -0.1200
vn 0.4205 0.0259 -0.0789
vn 0.4983 0.0025 0.0326
vn -0.4958 -0.0000 0.0646
vn 0.0118 0.0019 -0.4995
vn -0.2978 0.0108 -0.3867
vn -0.2121 0.0017 -0.4525
vn 0.3062 0.0049 0.3923
vn 0.4526 0.0039 -0.2088
vn 0.1147 0.0241 0.4227
vn 0.0134 0.0216 0.4510
vn -0.3315 0.0277 0.2513
vn -0.1308 0.0376 0.3024
vn -0.2195 0.0309 -0.3260
vn 0.4831 0.0030 0.1254
vn -0.4261 0.0030 -0.2599
vn 0.3408 0.0033 -0.3644
vn -0.1703 0.0205 -0.4228
vn 0.3607 0.0084 -0.3358
vn 0.3628 0.0341 0.0452
vn 0.1982 0.0458 -0.0356
vn -0.2685 0.0376 0.1913
vn -0.2687 0.0103 0.4090
vn -0.3076 0.0024 -0.3935
vn -0.4723 0.0120 0.1118
vn -0.1325 0.0314 0.3663
vn 0.4881 0.0052 0.0952
vn -0.4819 0.0034 0.1291
vn -0.1587 0.0017 -0.4738
vn 0.3712 0.0197 0.2712
vn 0.1678 0.0025 -0.4704
vn -0.2014 0.0020 0.4572
vn 0.4344 0.0042 0.2440
vn -0.3785 0.0273 -0.1796
vn -0.4537 0.0184 0.1015
vn -0.4204 0.0247 0.1100
vn -0.4687 0.0135 0.1105
vn -0.3433 0.0248 0.2657
vn -0.4984 0.0021 -0.0338
vn 0.4500 0.0048 -0.2127
vn 0.2237 0.0026 0.4464
vn -0.1328 -0.0014 -0.4819
vn -0.4321 0.0239 -0.0790
vn -0.4427 0.0223 0.0656
vn -0.2343 0.0440 -0.0405
vn -0.4003 0.0297 0.0369
vn 0.1759 0.0040 0.4663
vn 0.4970 0.0029 0.0466
vn -0.4957 0.0028 0.0593
vn 0.0019 -0.0000 0.5000
vn 0.0125 0.0003 0.4998
vn -0.4947 -0.0006 -0.0726
vn -0.0128 0.0003 0.4998
vn 0.4522 0.0166 0.1342
vn -0.0030 -0.0000 0.5000
vn -0.3934 0.0066 0.3014
vn -0.4444 0.0225 -0.0453
vn -0.1448 0.0373 0.2996
vn -0.4354 0.0242 -0.0444
vn -0.4492 0.0217 -0.0354
vn 0.1929 0.0043 0.4593
vn 0.4844 0.0018 -0.1226
vn -0.2748 0.0098 -0.4060
vn -0.2661 0.0211 -0.3671
vn -0.4767 0.0051 -0.1417
vn 0.4137 0.0256 -0.1161
vn 0.4284 0.0191 -0.1737
vn 0.4603 0.0129 -0.1466
vn 0.4550 0.0186 -0.0925
vn 0.4656 0.0182 -0.0098
vn 0.4822 0.0054 0.1207
vn -0.0095 0.0490 0.1001
vn 0.1757 0.0363 -0.2960
vn 0.3179 0.0186 0.3381
vn 0.4522 0.0123 -0.1745
vn -0.3211 0.0083 -0.3741
vn 0.1914 0.0004 0.4619
vn 0.1238 0.0236 0.4230
vn 0.3598 0.0182 0.2958
vn -0.3903 0.0193 0.2458
vn -0.4730 0.0017 -0.1611
vn 0.0330 0.0209 0.4529
vn -0.2572 0.0429 0.0130
vn -0.2907 0.0310 -0.2633
vn 0.4666 0.0158 -0.0858
vn 0.4157 0.0103 0.2580
vn -0.2880 0.0401 0.0806
vn 0.4427 0.0210 0.0992
vn -0.3076 0.0375 0.1211
vn -0.2481 0.0106 0.4211
vn 0.0510 0.0096 -0.4881
vn -0.4387 0.0232 0.0598
vn -0.4387 0.0216 0.1040
vn -0.3641 0.0339 0.0507
vn -0.2929 0.0394 0.0958
vn -0.3720 0.0333 0.0294
vn -0.4218 0.0249 -0.1014
vn -0.4956 0.0028 0.0599
vn -0.4045 0.0293 0.0177
vn -0.1475 0.0468 0.0969
vn -0.4621 0.0095 -0.1660
vt 0.375000 1.000000
vt 0.375000 0.000000
vt 0.625000 1.000000
vt 0.625000 0.000000
vt 0.875000 0.750000
vt 0.375000 0.250000
vt 0.625000 0.250000
vt 0.875000 0.500000
vt 0.375000 0.750000
vt 0.625000 0.750000
vt 0.375000 0.500000
vt 0.625000 0.500000
vt 0.375000 0.375000
vt 0.625000 0.375000
vt 0.750000 0.500000
vt 0.375000 0.875000
vt 0.777322 0.710475
vt 0.375000 0.125000
vt 0.625000 0.125000
vt 0.875000 0.625000
vt 0.375000 0.625000
vt 0.625000 0.625000
vt 0.774047 0.667268
vt 0.625000 0.437500
vt 0.687500 0.500000
vt 0.375000 0.812500
vt 0.375000 0.437500
vt 0.625000 0.812500
vt 0.687500 0.750000
vt 0.687500 0.625000
vt 0.375000 0.312500
vt 0.786116 0.707843
vt 0.625000 0.312500
vt 0.812500 0.500000
vt 0.375000 0.937500
vt 0.789567 0.670882
vt 0.750000 0.625000
vt 0.625000 0.875000
vt 0.750000 0.750000
vt 0.812500 0.625000
vt 0.625000 0.937500
vt 0.812500 0.750000
vt 0.774047 0.667268
vt 0.777322 0.710475
vt 0.789567 0.670882
vt 0.786116 0.707843
vt 0.711109 0.533723
vt 0.726210 0.532239
vt 0.725350 0.595630
vt 0.712018 0.594336
vt 0.642302 0.536131
vt 0.669429 0.537362
vt 0.670732 0.588144
vt 0.641045 0.589322
vt 0.644886 0.658652
vt 0.667904 0.658964
vt 0.654080 0.716339
vt 0.658499 0.716162
vt 0.667904 0.658964
vt 0.644886 0.658652
vt 0.658499 0.716162
vt 0.654080 0.716339
vt 0.669429 0.537362
vt 0.642302 0.536131
vt 0.641045 0.589322
vt 0.670732 0.588144
vt 0.726210 0.532239
vt 0.711109 0.533723
vt 0.712018 0.594336
vt 0.725350 0.595630
vt 0.840055 0.515196
vt 0.847711 0.515001
vt 0.853277 0.611108
vt 0.834237 0.610779
vt 0.847711 0.515001
vt 0.840055 0.515196
vt 0.834237 0.610779
vt 0.853277 0.611108
vt 0.839274 0.660140
vt 0.848893 0.656503
vt 0.851781 0.723130
vt 0.835590 0.718896
vt 0.706032 0.649005
vt 0.731373 0.649523
vt 0.731997 0.726061
vt 0.705422 0.726573
vt 0.731373 0.649523
vt 0.706032 0.649005
vt 0.705422 0.726573
vt 0.731997 0.726061
vt 0.848893 0.656503
vt 0.839274 0.660140
vt 0.835590 0.718896
vt 0.851781 0.723130
vt 0.732720 0.745262
vt 0.704541 0.745214
vt 0.714813 0.731171
vt 0.722643 0.730979
vt 0.704541 0.745214
vt 0.732720 0.745262
vt 0.722643 0.730979
vt 0.714813 0.731171
vt 0.698094 0.505082
vt 0.737799 0.504791
vt 0.721663 0.527945
vt 0.714392 0.528240
vt 0.737799 0.504791
vt 0.698094 0.505082
vt 0.714392 0.528240
vt 0.721663 0.527945
s 0
f 14/19/1 3/6/1 13/18/1
f 20/27/2 8/12/2 7/11/2
f 16/22/3 5/9/3 15/21/3
f 31/41/4 1/1/4 26/35/4
f 70/81/5 80/91/5 69/80/5
f 75/86/6 79/90/6 74/85/6
f 19/26/7 29/38/7 11/16/7
f 23/31/2 10/14/2 9/13/2
f 38/49/8 56/67/8 37/48/8
f 63/74/9 67/78/9 62/73/9
f 8/12/3 15/21/3 7/11/3
f 1/2/1 14/19/1 13/18/1
f 42/53/10 54/65/10 55/66/10
f 6/10/7 19/26/7 5/9/7
f 45/56/11 51/62/11 48/59/11
f 10/14/2 20/27/2 9/13/2
f 10/15/12 30/40/12 28/37/12
f 3/6/2 25/33/2 23/31/2
f 24/32/13 34/45/13 27/36/13
f 11/16/4 31/41/4 26/35/4
f 17/23/14 29/39/14 28/37/14
f 17/23/15 30/40/15 27/36/15
f 24/32/16 29/39/16 12/17/16
f 27/36/17 31/42/17 24/32/17
f 32/43/18 35/46/18 33/44/18
f 17/23/19 34/45/19 32/43/19
f 24/32/20 33/44/20 35/46/20
f 17/23/21 33/44/21 12/17/21
f 92/103/22 96/107/22 97/108/22
f 28/37/23 37/48/23 10/15/23
f 22/30/24 38/49/24 28/37/24
f 18/25/25 39/50/25 22/30/25
f 18/25/26 40/51/26 8/12/26
f 18/25/27 42/53/27 41/52/27
f 16/22/28 42/53/28 22/30/28
f 16/22/29 40/51/29 43/54/29
f 16/22/30 45/56/30 44/55/30
f 21/29/31 45/56/31 22/30/31
f 21/29/32 47/58/32 46/57/32
f 6/10/33 44/55/33 47/58/33
f 49/60/34 51/62/34 50/61/34
f 45/56/35 49/60/35 44/55/35
f 47/58/36 51/62/36 46/57/36
f 47/58/37 49/60/37 50/61/37
f 52/63/38 54/65/38 53/64/38
f 43/54/39 53/64/39 54/65/39
f 42/53/40 52/63/40 41/52/40
f 41/52/41 53/64/41 40/51/41
f 57/68/42 59/70/42 58/69/42
f 36/47/43 56/67/43 57/68/43
f 39/50/44 59/70/44 38/49/44
f 39/50/45 57/68/45 58/69/45
f 25/34/46 61/72/46 60/71/46
f 4/8/47 62/73/47 61/72/47
f 30/40/48 62/73/48 14/20/48
f 25/34/49 63/74/49 30/40/49
f 65/76/50 67/78/50 66/77/50
f 63/74/51 65/76/51 66/77/51
f 61/72/52 67/78/52 64/75/52
f 61/72/53 65/76/53 60/71/53
f 30/40/54 69/80/54 68/79/54
f 14/20/55 70/81/55 69/80/55
f 31/42/56 70/81/56 2/5/56
f 30/40/57 71/82/57 31/42/57
f 28/37/58 72/83/58 22/30/58
f 28/37/59 74/85/59 73/84/59
f 86/97/60 90/101/60 91/102/60
f 21/29/61 72/83/61 75/86/61
f 76/87/62 78/89/62 77/88/62
f 72/83/63 78/89/63 75/86/63
f 73/84/64 79/90/64 76/87/64
f 72/83/65 76/87/65 77/88/65
f 81/92/66 83/94/66 82/93/66
f 68/79/67 80/91/67 81/92/67
f 70/81/68 82/93/68 83/94/68
f 68/79/69 82/93/69 71/82/69
f 21/29/70 84/95/70 29/39/70
f 75/86/71 85/96/71 21/29/71
f 74/85/72 86/97/72 75/86/72
f 74/85/73 84/95/73 87/98/73
f 88/99/74 90/101/74 89/100/74
f 87/98/75 89/100/75 90/101/75
f 85/96/76 91/102/76 88/99/76
f 85/96/77 89/100/77 84/95/77
f 18/25/78 93/104/78 92/103/78
f 37/48/79 93/104/79 10/15/79
f 36/47/80 94/105/80 37/48/80
f 18/25/81 95/106/81 36/47/81
f 97/108/82 99/110/82 98/109/82
f 95/106/83 99/110/83 94/105/83
f 92/103/84 98/109/84 95/106/84
f 94/105/85 96/107/85 93/104/85
f 14/19/1 4/7/1 3/6/1
f 20/27/2 18/24/2 8/12/2
f 16/22/3 6/10/3 5/9/3
f 31/41/86 2/3/86 1/1/86
f 70/81/5 83/94/5 80/91/5
f 75/86/6 78/89/6 79/90/6
f 19/26/87 21/28/87 29/38/87
f 23/31/2 25/33/2 10/14/2
f 38/49/88 59/70/88 56/67/88
f 63/74/9 66/77/9 67/78/9
f 8/12/3 16/22/3 15/21/3
f 1/2/1 2/4/1 14/19/1
f 42/53/10 43/54/10 54/65/10
f 6/10/89 21/28/89 19/26/89
f 45/56/11 46/57/11 51/62/11
f 10/14/2 18/24/2 20/27/2
f 10/15/90 25/34/90 30/40/90
f 3/6/2 4/7/2 25/33/2
f 24/32/13 35/46/13 34/45/13
f 11/16/91 29/38/91 31/41/91
f 17/23/92 12/17/92 29/39/92
f 17/23/93 28/37/93 30/40/93
f 24/32/94 31/42/94 29/39/94
f 27/36/95 30/40/95 31/42/95
f 32/43/96 34/45/96 35/46/96
f 17/23/19 27/36/19 34/45/19
f 24/32/97 12/17/97 33/44/97
f 17/23/98 32/43/98 33/44/98
f 92/103/22 93/104/22 96/107/22
f 28/37/99 38/49/99 37/48/99
f 22/30/100 39/50/100 38/49/100
f 18/25/101 36/47/101 39/50/101
f 18/25/102 41/52/102 40/51/102
f 18/25/103 22/30/103 42/53/103
f 16/22/104 43/54/104 42/53/104
f 16/22/105 8/12/105 40/51/105
f 16/22/106 22/30/106 45/56/106
f 21/29/107 46/57/107 45/56/107
f 21/29/108 6/10/108 47/58/108
f 6/10/109 16/22/109 44/55/109
f 49/60/110 48/59/110 51/62/110
f 45/56/35 48/59/35 49/60/35
f 47/58/36 50/61/36 51/62/36
f 47/58/37 44/55/37 49/60/37
f 52/63/111 55/66/111 54/65/111
f 43/54/39 40/51/39 53/64/39
f 42/53/40 55/66/40 52/63/40
f 41/52/41 52/63/41 53/64/41
f 57/68/112 56/67/112 59/70/112
f 36/47/43 37/48/43 56/67/43
f 39/50/113 58/69/113 59/70/113
f 39/50/45 36/47/45 57/68/45
f 25/34/114 4/8/114 61/72/114
f 4/8/115 14/20/115 62/73/115
f 30/40/116 63/74/116 62/73/116
f 25/34/117 60/71/117 63/74/117
f 65/76/118 64/75/118 67/78/118
f 63/74/51 60/71/51 65/76/51
f 61/72/52 62/73/52 67/78/52
f 61/72/53 64/75/53 65/76/53
f 30/40/119 14/20/119 69/80/119
f 14/20/120 2/5/120 70/81/120
f 31/42/121 71/82/121 70/81/121
f 30/40/122 68/79/122 71/82/122
f 28/37/123 73/84/123 72/83/123
f 28/37/124 29/39/124 74/85/124
f 86/97/60 87/98/60 90/101/60
f 21/29/125 22/30/125 72/83/125
f 76/87/126 79/90/126 78/89/126
f 72/83/63 77/88/63 78/89/63
f 73/84/64 74/85/64 79/90/64
f 72/83/65 73/84/65 76/87/65
f 81/92/127 80/91/127 83/94/127
f 68/79/67 69/80/67 80/91/67
f 70/81/68 71/82/68 82/93/68
f 68/79/69 81/92/69 82/93/69
f 21/29/128 85/96/128 84/95/128
f 75/86/129 86/97/129 85/96/129
f 74/85/130 87/98/130 86/97/130
f 74/85/131 29/39/131 84/95/131
f 88/99/132 91/102/132 90/101/132
f 87/98/75 84/95/75 89/100/75
f 85/96/76 86/97/76 91/102/76
f 85/96/77 88/99/77 89/100/77
f 18/25/133 10/15/133 93/104/133
f 37/48/134 94/105/134 93/104/134
f 36/47/135 95/106/135 94/105/135
f 18/25/136 92/103/136 95/106/136
f 97/108/137 96/107/137 99/110/137
f 95/106/83 98/109/83 99/110/83
f 92/103/84 97/108/84 98/109/84
f 94/105/85 99/110/85 96/107/85
