# Blender 3.1.0
# www.blender.org
mtllib BoundingVis.mtl
o Cube.001
v -1.000000 -1.000000 1.000000
v -1.000000 1.000000 1.000000
v -1.000000 -1.000000 -1.000000
v -1.000000 1.000000 -1.000000
v 1.000000 -1.000000 1.000000
v 1.000000 1.000000 1.000000
v 1.000000 -1.000000 -1.000000
v 1.000000 1.000000 -1.000000
v -1.000000 -0.943981 0.943981
v -1.000000 0.943981 0.943981
v -1.000000 0.943981 -0.943981
v -1.000000 -0.943981 -0.943981
v -0.943981 -0.943981 -1.000000
v -0.943981 0.943981 -1.000000
v 0.943981 0.943981 -1.000000
v 0.943981 -0.943981 -1.000000
v 1.000000 -0.943981 -0.943981
v 1.000000 0.943981 -0.943981
v 1.000000 0.943981 0.943981
v 1.000000 -0.943981 0.943981
v 0.943981 -0.943981 1.000000
v 0.943981 0.943981 1.000000
v -0.943981 0.943981 1.000000
v -0.943981 -0.943981 1.000000
v -0.943981 -1.000000 -0.943981
v 0.943981 -1.000000 -0.943981
v 0.943981 -1.000000 0.943981
v -0.943981 -1.000000 0.943981
v 0.943981 1.000000 -0.943981
v -0.943981 1.000000 -0.943981
v -0.943981 1.000000 0.943981
v 0.943981 1.000000 0.943981
v -0.994227 -0.994227 0.994227
v -0.994227 0.994227 0.994227
v -0.994227 -0.994227 -0.994227
v -0.994227 0.994227 -0.994227
v 0.994227 -0.994227 0.994227
v 0.994227 0.994227 0.994227
v 0.994227 -0.994227 -0.994227
v 0.994227 0.994227 -0.994227
v -0.990000 -0.943981 0.943981
v -0.990000 0.943981 0.943981
v -0.990000 0.943981 -0.943981
v -0.990000 -0.943981 -0.943981
v -0.943981 -0.943981 -0.990000
v -0.943981 0.943981 -0.990000
v 0.943981 0.943981 -0.990000
v 0.943981 -0.943981 -0.990000
v 0.990000 -0.943981 -0.943981
v 0.990000 0.943981 -0.943981
v 0.990000 0.943981 0.943981
v 0.990000 -0.943981 0.943981
v 0.943981 -0.943981 0.990000
v 0.943981 0.943981 0.990000
v -0.943981 0.943981 0.990000
v -0.943981 -0.943981 0.990000
v -0.943981 -0.990000 -0.943981
v 0.943981 -0.990000 -0.943981
v 0.943981 -0.990000 0.943981
v -0.943981 -0.990000 0.943981
v 0.943981 0.990000 -0.943981
v -0.943981 0.990000 -0.943981
v -0.943981 0.990000 0.943981
v 0.943981 0.990000 0.943981
vn -1.0000 -0.0000 -0.0000
vn -0.0000 -0.0000 -1.0000
vn 1.0000 -0.0000 -0.0000
vn -0.0000 -0.0000 1.0000
vn -0.0000 -1.0000 -0.0000
vn -0.0000 1.0000 -0.0000
vn 0.9965 -0.0000 0.0838
vn 0.9965 0.0838 -0.0000
vn 0.9965 -0.0000 -0.0838
vn 0.9965 -0.0838 -0.0000
vn -0.0838 -0.0000 0.9965
vn -0.0000 0.0838 0.9965
vn 0.0838 -0.0000 0.9965
vn -0.0000 -0.0838 0.9965
vn -0.9965 -0.0000 -0.0838
vn -0.9965 0.0838 -0.0000
vn -0.9965 -0.0000 0.0838
vn -0.9965 -0.0838 -0.0000
vn 0.0838 -0.0000 -0.9965
vn -0.0000 0.0838 -0.9965
vn -0.0838 -0.0000 -0.9965
vn -0.0000 -0.0838 -0.9965
vn -0.0000 0.9965 -0.0838
vn 0.0838 0.9965 -0.0000
vn -0.0000 0.9965 0.0838
vn -0.0838 0.9965 -0.0000
vn -0.0000 -0.9965 -0.0838
vn -0.0838 -0.9965 -0.0000
vn -0.0000 -0.9965 0.0838
vn 0.0838 -0.9965 -0.0000
vt 0.375000 0.000000
vt 0.375000 1.000000
vt 0.125000 0.750000
vt 0.625000 0.000000
vt 0.625000 1.000000
vt 0.875000 0.750000
vt 0.375000 0.250000
vt 0.125000 0.500000
vt 0.625000 0.250000
vt 0.875000 0.500000
vt 0.375000 0.750000
vt 0.625000 0.750000
vt 0.375000 0.500000
vt 0.625000 0.500000
vt 0.382002 0.007002
vt 0.617998 0.007002
vt 0.617998 0.242998
vt 0.382002 0.242998
vt 0.382002 0.257002
vt 0.617998 0.257002
vt 0.617998 0.492998
vt 0.382002 0.492998
vt 0.382002 0.507002
vt 0.617998 0.507002
vt 0.617998 0.742998
vt 0.382002 0.742998
vt 0.382002 0.757002
vt 0.617998 0.757002
vt 0.617998 0.992998
vt 0.382002 0.992998
vt 0.132002 0.507002
vt 0.367998 0.507002
vt 0.367998 0.742998
vt 0.132002 0.742998
vt 0.632002 0.507002
vt 0.867998 0.507002
vt 0.867998 0.742998
vt 0.632002 0.742998
vt 0.375000 0.000000
vt 0.375000 1.000000
vt 0.125000 0.750000
vt 0.625000 0.000000
vt 0.625000 1.000000
vt 0.875000 0.750000
vt 0.375000 0.250000
vt 0.125000 0.500000
vt 0.625000 0.250000
vt 0.875000 0.500000
vt 0.375000 0.750000
vt 0.625000 0.750000
vt 0.375000 0.500000
vt 0.625000 0.500000
vt 0.382002 0.007002
vt 0.617998 0.007002
vt 0.617998 0.242998
vt 0.382002 0.242998
vt 0.382002 0.257002
vt 0.617998 0.257002
vt 0.617998 0.492998
vt 0.382002 0.492998
vt 0.382002 0.507002
vt 0.617998 0.507002
vt 0.617998 0.742998
vt 0.382002 0.742998
vt 0.382002 0.757002
vt 0.617998 0.757002
vt 0.617998 0.992998
vt 0.382002 0.992998
vt 0.132002 0.507002
vt 0.367998 0.507002
vt 0.367998 0.742998
vt 0.132002 0.742998
vt 0.632002 0.507002
vt 0.867998 0.507002
vt 0.867998 0.742998
vt 0.632002 0.742998
s 0
f 2/4/1 9/15/1 1/1/1
f 4/9/1 10/16/1 2/4/1
f 3/7/1 11/17/1 4/9/1
f 1/1/1 12/18/1 3/7/1
f 4/9/2 13/19/2 3/7/2
f 8/14/2 14/20/2 4/9/2
f 7/13/2 15/21/2 8/14/2
f 3/7/2 16/22/2 7/13/2
f 8/14/3 17/23/3 7/13/3
f 6/12/3 18/24/3 8/14/3
f 5/11/3 19/25/3 6/12/3
f 7/13/3 20/26/3 5/11/3
f 6/12/4 21/27/4 5/11/4
f 2/5/4 22/28/4 6/12/4
f 1/2/4 23/29/4 2/5/4
f 5/11/4 24/30/4 1/2/4
f 7/13/5 25/31/5 3/8/5
f 5/11/5 26/32/5 7/13/5
f 1/3/5 27/33/5 5/11/5
f 3/8/5 28/34/5 1/3/5
f 4/10/6 29/35/6 8/14/6
f 2/6/6 30/36/6 4/10/6
f 6/12/6 31/37/6 2/6/6
f 8/14/6 32/38/6 6/12/6
f 41/53/7 34/42/7 33/39/7
f 42/54/8 36/47/8 34/42/8
f 43/55/9 35/45/9 36/47/9
f 44/56/10 33/39/10 35/45/10
f 45/57/11 36/47/11 35/45/11
f 46/58/12 40/52/12 36/47/12
f 47/59/13 39/51/13 40/52/13
f 48/60/14 35/45/14 39/51/14
f 49/61/15 40/52/15 39/51/15
f 50/62/16 38/50/16 40/52/16
f 51/63/17 37/49/17 38/50/17
f 52/64/18 39/51/18 37/49/18
f 53/65/19 38/50/19 37/49/19
f 54/66/20 34/43/20 38/50/20
f 55/67/21 33/40/21 34/43/21
f 56/68/22 37/49/22 33/40/22
f 57/69/23 39/51/23 35/46/23
f 58/70/24 37/49/24 39/51/24
f 59/71/25 33/41/25 37/49/25
f 60/72/26 35/46/26 33/41/26
f 61/73/27 36/48/27 40/52/27
f 62/74/28 34/44/28 36/48/28
f 63/75/29 38/50/29 34/44/29
f 64/76/30 40/52/30 38/50/30
f 10/16/2 41/53/2 9/15/2
f 9/15/6 44/56/6 12/18/6
f 11/17/5 42/54/5 10/16/5
f 12/18/4 43/55/4 11/17/4
f 14/20/3 45/57/3 13/19/3
f 13/19/6 48/60/6 16/22/6
f 15/21/5 46/58/5 14/20/5
f 16/22/1 47/59/1 15/21/1
f 18/24/4 49/61/4 17/23/4
f 17/23/6 52/64/6 20/26/6
f 19/25/5 50/62/5 18/24/5
f 20/26/2 51/63/2 19/25/2
f 22/28/1 53/65/1 21/27/1
f 21/27/6 56/68/6 24/30/6
f 23/29/5 54/66/5 22/28/5
f 24/30/3 55/67/3 23/29/3
f 26/32/4 57/69/4 25/31/4
f 25/31/3 60/72/3 28/34/3
f 27/33/1 58/70/1 26/32/1
f 28/34/2 59/71/2 27/33/2
f 30/36/4 61/73/4 29/35/4
f 29/35/1 64/76/1 32/38/1
f 31/37/3 62/74/3 30/36/3
f 32/38/2 63/75/2 31/37/2
f 2/4/1 10/16/1 9/15/1
f 4/9/1 11/17/1 10/16/1
f 3/7/1 12/18/1 11/17/1
f 1/1/1 9/15/1 12/18/1
f 4/9/2 14/20/2 13/19/2
f 8/14/2 15/21/2 14/20/2
f 7/13/2 16/22/2 15/21/2
f 3/7/2 13/19/2 16/22/2
f 8/14/3 18/24/3 17/23/3
f 6/12/3 19/25/3 18/24/3
f 5/11/3 20/26/3 19/25/3
f 7/13/3 17/23/3 20/26/3
f 6/12/4 22/28/4 21/27/4
f 2/5/4 23/29/4 22/28/4
f 1/2/4 24/30/4 23/29/4
f 5/11/4 21/27/4 24/30/4
f 7/13/5 26/32/5 25/31/5
f 5/11/5 27/33/5 26/32/5
f 1/3/5 28/34/5 27/33/5
f 3/8/5 25/31/5 28/34/5
f 4/10/6 30/36/6 29/35/6
f 2/6/6 31/37/6 30/36/6
f 6/12/6 32/38/6 31/37/6
f 8/14/6 29/35/6 32/38/6
f 41/53/7 42/54/7 34/42/7
f 42/54/8 43/55/8 36/47/8
f 43/55/9 44/56/9 35/45/9
f 44/56/10 41/53/10 33/39/10
f 45/57/11 46/58/11 36/47/11
f 46/58/12 47/59/12 40/52/12
f 47/59/13 48/60/13 39/51/13
f 48/60/14 45/57/14 35/45/14
f 49/61/15 50/62/15 40/52/15
f 50/62/16 51/63/16 38/50/16
f 51/63/17 52/64/17 37/49/17
f 52/64/18 49/61/18 39/51/18
f 53/65/19 54/66/19 38/50/19
f 54/66/20 55/67/20 34/43/20
f 55/67/21 56/68/21 33/40/21
f 56/68/22 53/65/22 37/49/22
f 57/69/23 58/70/23 39/51/23
f 58/70/24 59/71/24 37/49/24
f 59/71/25 60/72/25 33/41/25
f 60/72/26 57/69/26 35/46/26
f 61/73/27 62/74/27 36/48/27
f 62/74/28 63/75/28 34/44/28
f 63/75/29 64/76/29 38/50/29
f 64/76/30 61/73/30 40/52/30
f 10/16/2 42/54/2 41/53/2
f 9/15/6 41/53/6 44/56/6
f 11/17/5 43/55/5 42/54/5
f 12/18/4 44/56/4 43/55/4
f 14/20/3 46/58/3 45/57/3
f 13/19/6 45/57/6 48/60/6
f 15/21/5 47/59/5 46/58/5
f 16/22/1 48/60/1 47/59/1
f 18/24/4 50/62/4 49/61/4
f 17/23/6 49/61/6 52/64/6
f 19/25/5 51/63/5 50/62/5
f 20/26/2 52/64/2 51/63/2
f 22/28/1 54/66/1 53/65/1
f 21/27/6 53/65/6 56/68/6
f 23/29/5 55/67/5 54/66/5
f 24/30/3 56/68/3 55/67/3
f 26/32/4 58/70/4 57/69/4
f 25/31/3 57/69/3 60/72/3
f 27/33/1 59/71/1 58/70/1
f 28/34/2 60/72/2 59/71/2
f 30/36/4 62/74/4 61/73/4
f 29/35/1 61/73/1 64/76/1
f 31/37/3 63/75/3 62/74/3
f 32/38/2 64/76/2 63/75/2
