# Blender 3.1.0
# www.blender.org
mtllib Vert.mtl
o Cube.001
v 0.583822 -0.064455 0.127924
v 0.544392 0.090190 0.135670
v 0.572479 -0.080759 -0.130790
v 0.563100 0.061304 -0.135385
v 0.762100 -0.149227 0.080542
v 0.821316 -0.063548 0.082007
v 0.741046 -0.189030 -0.082007
v 0.774579 -0.032072 -0.082007
v 1.080997 -0.359145 -0.040827
v 1.027550 -0.367095 -0.040827
v 1.028504 -0.371864 0.040827
v 1.077182 -0.355330 0.040827
v 1.118079 -0.647565 -0.012115
v 1.101807 -0.624478 -0.012115
v 1.102761 -0.629247 0.012115
v 1.111402 -0.633258 0.012115
v -0.533700 -0.138556 0.161725
v -0.554311 0.025941 0.172896
v -0.531609 -0.133225 -0.144324
v -0.516966 0.062026 -0.138663
v -0.744480 -0.160416 0.082007
v -0.814449 -0.075947 0.082007
v -0.769565 -0.183050 -0.082007
v -0.826322 -0.064095 -0.082007
v -1.079138 -0.354735 -0.040827
v -1.024743 -0.363415 -0.040827
v -1.029267 -0.361372 0.040827
v -1.071650 -0.356093 0.040827
v -1.118079 -0.647565 -0.012115
v -1.097992 -0.634016 -0.012115
v -1.097992 -0.634016 0.012115
v -1.118079 -0.630086 0.009355
v -1.013243 -0.367095 -0.000000
v -0.832762 -0.053056 -0.000000
v -1.093397 -0.351515 -0.000000
v -0.741046 -0.189030 -0.000000
v 0.009489 -0.307887 -0.630536
v -0.016130 0.312449 0.500000
v 0.005583 -0.324857 0.500000
v 0.075948 0.407438 -0.545094
v 0.249485 -0.200073 0.521069
v 0.242287 0.196354 -0.521880
v 0.225525 -0.205853 -0.523415
v 0.188292 0.137988 0.521069
v -0.221122 -0.209084 -0.523415
v -0.249956 0.199295 0.521250
v -0.228639 -0.185456 0.521069
v -0.205591 0.192743 -0.521880
v 0.386654 -0.166778 0.354397
v 0.385115 0.181607 -0.354397
v 0.371234 -0.198033 -0.354397
v 0.343347 0.164418 0.354397
v -0.371385 -0.198485 -0.354397
v -0.396205 0.128579 0.376822
v -0.364128 -0.188780 0.354397
v -0.371385 0.193665 -0.354397
v -0.535676 0.090592 0.016036
v -0.546633 -0.184120 0.003387
v 0.001952 -0.013908 -0.792763
v -0.000013 -0.000015 0.792763
v 0.222290 -0.027710 0.627903
v 0.191355 -0.029301 -0.627903
v -0.192260 -0.036222 -0.627903
v -0.240408 0.006395 0.627903
v 0.355147 -0.016685 0.427058
v 0.351761 -0.013951 -0.427058
v -0.351437 -0.015709 -0.427058
v -0.370221 -0.005131 0.430552
v 0.581009 0.114639 0.002103
v 0.584234 -0.128943 -0.002113
v 0.000000 -0.275428 -0.000000
v 0.000000 0.275428 -0.000000
v 0.274910 0.130532 -0.000000
v 0.273422 -0.127097 0.000000
v -0.262331 -0.137889 -0.000000
v -0.265269 0.115023 0.004651
v 0.439572 0.125428 -0.000000
v 0.437665 -0.114832 0.000000
v -0.406948 -0.146748 -0.000000
v -0.422354 0.076322 0.014361
v -1.097992 -0.634016 -0.000000
v 0.533964 -0.009019 -0.277634
v 0.515314 -0.233516 -0.200748
v 0.531694 0.020346 0.277634
v 0.546833 -0.179377 0.200748
v 0.569631 0.177500 -0.000000
v 0.517006 0.233502 0.200748
v 0.568906 -0.161361 0.000000
v 0.547536 0.210231 -0.200748
v 0.741046 -0.196941 -0.000000
v 0.832762 -0.053056 -0.000000
v 1.013243 -0.375006 -0.000000
v 1.093397 -0.351515 -0.000000
v 1.097992 -0.634016 -0.000000
v 1.118079 -0.654005 0.001380
v -0.533463 -0.203899 -0.000000
v -0.512543 -0.239163 0.200748
v -0.527242 -0.052841 0.293512
v -0.555610 0.101185 0.242530
v -0.512581 -0.005237 -0.277634
v -0.510994 -0.238538 -0.200748
v -0.557809 0.108453 0.021855
v -0.506687 0.230290 -0.200404
v -1.118079 -0.638826 -0.001380
vn 0.0202 -0.0043 -0.0794
vn 0.0581 0.0507 0.0278
vn 0.0154 -0.0120 0.0796
vn -0.0242 -0.0702 0.0348
vn 0.0448 0.0671 0.0148
vn -0.0041 -0.0089 0.0814
vn 0.0103 -0.0022 -0.0813
vn 0.0030 -0.0089 0.0815
vn -0.0447 -0.0684 -0.0066
vn -0.0306 -0.0659 0.0380
vn -0.0685 -0.0224 -0.0392
vn 0.0743 0.0062 0.0342
vn 0.0013 -0.0087 -0.0815
vn -0.0770 0.0067 -0.0274
vn -0.0162 0.0035 -0.0803
vn -0.0589 0.0501 0.0272
vn -0.0205 -0.0170 0.0776
vn 0.0015 -0.0774 0.0271
vn -0.0349 0.0691 0.0271
vn -0.0010 -0.0083 0.0816
vn -0.0098 -0.0047 -0.0813
vn -0.0074 -0.0062 0.0814
vn 0.0435 -0.0666 -0.0200
vn 0.0116 -0.0630 0.0513
vn 0.0753 -0.0228 -0.0233
vn -0.0717 0.0077 0.0391
vn -0.0013 -0.0083 -0.0816
vn -0.0044 0.0811 -0.0114
vn -0.0554 0.0129 0.0590
vn -0.0330 0.0730 -0.0175
vn -0.0199 -0.0783 -0.0143
vn 0.0509 0.0146 -0.0626
vn -0.0523 0.0240 -0.0584
vn -0.0380 -0.0725 -0.0042
vn 0.0448 0.0435 0.0532
vn 0.0382 0.0724 0.0053
vn 0.0025 0.0815 -0.0083
vn 0.0593 0.0388 0.0413
vn 0.0535 0.0161 -0.0600
vn 0.0377 -0.0724 -0.0076
vn 0.0050 -0.0812 -0.0102
vn -0.0614 0.0199 -0.0507
vn -0.0362 0.0493 0.0546
vn -0.0361 0.0733 -0.0066
vn 0.0464 0.0278 0.0617
vn -0.0287 0.0717 -0.0275
vn 0.0633 0.0098 -0.0513
vn 0.0062 -0.0810 -0.0111
vn -0.0542 0.0155 -0.0595
vn 0.0331 -0.0732 -0.0163
vn -0.0669 0.0204 0.0428
vn -0.0256 0.0770 -0.0118
vn -0.0609 -0.0227 0.0500
vn -0.0565 -0.0189 -0.0563
vn 0.0615 -0.0142 -0.0524
vn 0.0546 -0.0183 0.0584
vn -0.0260 -0.0523 0.0576
vn -0.0608 -0.0145 -0.0531
vn 0.0445 -0.0285 -0.0627
vn 0.0638 -0.0110 0.0503
vn 0.0149 -0.0408 0.0696
vn -0.0425 -0.0309 -0.0629
vn 0.0544 -0.0239 -0.0565
vn 0.0427 -0.0655 0.0247
vn -0.0486 -0.0325 0.0576
vn 0.0380 -0.0564 0.0459
vn 0.0139 0.0797 0.0133
vn 0.0331 -0.0732 0.0163
vn -0.0108 -0.0802 0.0131
vn -0.0299 0.0748 0.0155
vn -0.0490 0.0652 0.0090
vn 0.0050 -0.0809 0.0123
vn 0.0332 -0.0749 0.0044
vn 0.0025 0.0810 0.0125
vn 0.0381 0.0723 0.0067
vn -0.0379 -0.0724 0.0069
vn -0.0414 -0.0668 0.0234
vn 0.0726 -0.0216 0.0315
vn 0.0467 0.0621 0.0262
vn 0.0797 0.0047 -0.0186
vn 0.0762 -0.0057 0.0298
vn 0.0795 0.0066 0.0190
vn 0.0776 -0.0234 -0.0123
vn 0.0802 0.0010 -0.0169
vn 0.0805 0.0099 0.0121
vn 0.0793 0.0138 -0.0157
vn 0.0730 -0.0334 0.0168
vn 0.0777 0.0075 -0.0250
vn -0.0728 -0.0242 0.0291
vn -0.0546 -0.0385 -0.0475
vn -0.0485 -0.0621 0.0229
vn 0.0447 0.0672 -0.0145
vn -0.0379 -0.0692 -0.0224
vn 0.0580 0.0507 -0.0281
vn -0.0805 -0.0147 0.0058
vn -0.0805 -0.0113 0.0107
vn -0.0799 -0.0063 -0.0174
vn -0.0796 -0.0023 -0.0196
vn -0.0805 -0.0108 0.0110
vn -0.0818 0.0034 -0.0042
vn -0.0676 -0.0414 -0.0211
vn -0.0526 -0.0557 -0.0292
vn 0.0095 -0.0773 -0.0257
vn -0.0620 0.0523 -0.0119
vn 0.0195 -0.0013 -0.0796
vn 0.0616 0.0519 0.0152
vn 0.0156 -0.0001 0.0805
vn -0.0279 -0.0629 0.0446
vn 0.0416 0.0666 0.0236
vn 0.0028 -0.0083 0.0815
vn 0.0013 -0.0090 -0.0815
vn 0.0070 -0.0062 0.0815
vn -0.0382 -0.0676 -0.0265
vn -0.0458 -0.0423 0.0533
vn -0.0724 -0.0242 -0.0301
vn 0.0758 0.0062 0.0307
vn -0.0139 -0.0098 -0.0802
vn -0.0810 0.0100 -0.0081
vn -0.0189 -0.0090 -0.0793
vn -0.0558 0.0487 0.0352
vn -0.0281 -0.0087 0.0766
vn -0.0004 -0.0788 0.0227
vn -0.0358 0.0696 0.0244
vn -0.0125 -0.0072 0.0807
vn -0.0016 -0.0101 -0.0814
vn -0.0013 -0.0107 0.0813
vn 0.0441 -0.0666 -0.0184
vn -0.0157 -0.0805 -0.0000
vn 0.0782 -0.0248 -0.0000
vn -0.0815 0.0070 -0.0057
vn 0.0059 -0.0088 -0.0813
vn 0.0190 0.0797 0.0024
vn -0.0534 0.0105 0.0613
vn -0.0347 0.0732 -0.0126
vn -0.0272 -0.0767 -0.0099
vn 0.0534 0.0176 -0.0597
vn -0.0369 0.0418 -0.0601
vn -0.0422 -0.0700 -0.0064
vn 0.0379 0.0507 0.0521
vn 0.0534 0.0622 -0.0029
vn -0.0181 0.0799 -0.0041
vn 0.0549 0.0257 0.0552
vn 0.0451 0.0287 -0.0622
vn 0.0389 -0.0717 -0.0083
vn 0.0120 -0.0807 -0.0081
vn -0.0574 0.0143 -0.0569
vn -0.0123 0.0388 0.0712
vn -0.0422 0.0696 -0.0101
vn 0.0455 0.0259 0.0631
vn -0.0435 0.0668 -0.0192
vn 0.0624 0.0088 -0.0525
vn 0.0061 -0.0810 -0.0110
vn -0.0575 0.0195 -0.0551
vn 0.0378 -0.0716 -0.0131
vn -0.0597 0.0106 0.0552
vn -0.0201 0.0789 -0.0099
vn -0.0636 -0.0281 0.0435
vn -0.0551 -0.0171 -0.0582
vn 0.0633 -0.0169 -0.0493
vn 0.0539 -0.0174 0.0593
vn -0.0423 -0.0361 0.0603
vn -0.0635 -0.0187 -0.0484
vn 0.0484 -0.0310 -0.0585
vn 0.0674 -0.0164 0.0437
vn 0.0349 -0.0493 0.0554
vn -0.0461 -0.0337 -0.0589
vn 0.0509 -0.0189 -0.0615
vn 0.0426 -0.0651 0.0259
vn -0.0460 -0.0273 0.0622
vn 0.0191 -0.0798 -0.0000
vn -0.0176 0.0770 0.0221
vn 0.0363 -0.0722 0.0142
vn 0.0060 -0.0799 0.0176
vn -0.0287 0.0751 0.0163
vn -0.0423 0.0701 0.0056
vn 0.0073 -0.0809 0.0116
vn 0.0390 -0.0718 0.0072
vn -0.0039 0.0812 0.0105
vn 0.0612 0.0505 0.0208
vn -0.0309 -0.0759 0.0034
vn -0.0252 -0.0711 0.0323
vn 0.0185 0.0682 0.0416
vn 0.0756 -0.0157 -0.0275
vn 0.0781 0.0191 0.0164
vn 0.0771 0.0147 0.0238
vn 0.0715 -0.0351 -0.0197
vn 0.0815 0.0049 -0.0082
vn 0.0790 -0.0211 0.0068
vn 0.0817 0.0067 0.0032
vn -0.0698 -0.0228 0.0365
vn -0.0538 -0.0559 -0.0267
vn -0.0378 -0.0578 0.0442
vn 0.0371 0.0664 -0.0306
vn -0.0324 -0.0750 -0.0072
vn 0.0583 0.0509 -0.0272
vn -0.0650 -0.0464 0.0187
vn -0.0816 0.0063 -0.0056
vn -0.0504 -0.0644 0.0058
vn -0.0802 -0.0123 0.0119
vn -0.0808 -0.0121 -0.0070
vn -0.0820 -0.0021 0.0007
vn 0.0022 -0.0817 -0.0067
vn -0.0589 0.0515 -0.0246
vt 0.125000 0.750000
vt 0.375000 1.000000
vt 0.436665 0.699720
vt 0.625000 1.000000
vt 0.875000 0.750000
vt 0.504810 0.707548
vt 0.567991 0.702368
vt 0.125000 0.500000
vt 0.375000 0.250000
vt 0.430887 0.547271
vt 0.495695 0.543629
vt 0.625000 0.250000
vt 0.567930 0.549878
vt 0.875000 0.500000
vt 0.375000 0.750000
vt 0.625000 0.750000
vt 0.375000 0.500000
vt 0.625000 0.500000
vt 0.625000 0.500000
vt 0.375000 0.500000
vt 0.375000 0.750000
vt 0.625000 0.750000
vt 0.625000 0.500000
vt 0.375000 0.500000
vt 0.375000 0.750000
vt 0.625000 0.750000
vt 0.375000 1.000000
vt 0.125000 0.750000
vt 0.416611 0.034401
vt 0.501359 0.029406
vt 0.625000 1.000000
vt 0.875000 0.750000
vt 0.574574 0.032598
vt 0.125000 0.500000
vt 0.375000 0.250000
vt 0.411504 0.215621
vt 0.625000 0.250000
vt 0.875000 0.500000
vt 0.505176 0.222825
vt 0.589541 0.220648
vt 0.375000 0.750000
vt 0.625000 0.750000
vt 0.375000 0.500000
vt 0.625000 0.500000
vt 0.625000 0.500000
vt 0.375000 0.500000
vt 0.375000 0.750000
vt 0.625000 0.750000
vt 0.625000 0.500000
vt 0.375000 0.500000
vt 0.375000 0.750000
vt 0.625000 0.750000
vt 0.375000 0.625000
vt 0.625000 0.625000
vt 0.625000 0.625000
vt 0.375000 0.625000
vt 0.375000 0.375000
vt 0.250000 0.500000
vt 0.750000 0.750000
vt 0.625000 0.875000
vt 0.250000 0.750000
vt 0.375000 0.875000
vt 0.625000 0.375000
vt 0.750000 0.500000
vt 0.312500 0.750000
vt 0.375000 0.812500
vt 0.625000 0.437500
vt 0.687500 0.500000
vt 0.375000 0.437500
vt 0.312500 0.500000
vt 0.687500 0.750000
vt 0.625000 0.812500
vt 0.375000 0.312500
vt 0.187500 0.500000
vt 0.812500 0.750000
vt 0.625000 0.937500
vt 0.187500 0.750000
vt 0.375000 0.937500
vt 0.625000 0.312500
vt 0.812500 0.500000
vt 0.343750 0.750000
vt 0.375000 0.781250
vt 0.625000 0.468750
vt 0.656250 0.500000
vt 0.375000 0.468750
vt 0.343750 0.500000
vt 0.625000 0.781250
vt 0.656250 0.750000
vt 0.375000 0.281250
vt 0.156250 0.500000
vt 0.625000 0.968750
vt 0.843750 0.750000
vt 0.156250 0.750000
vt 0.375000 0.968750
vt 0.625000 0.281250
vt 0.843750 0.500000
vt 0.875000 0.625000
vt 0.574278 0.130264
vt 0.423978 0.126703
vt 0.125000 0.625000
vt 0.500000 0.375000
vt 0.500000 0.875000
vt 0.500000 0.812500
vt 0.500000 0.437500
vt 0.500000 0.312500
vt 0.500000 0.937500
vt 0.500000 0.781250
vt 0.500000 0.468750
vt 0.500000 0.281250
vt 0.500000 0.968750
vt 0.556868 0.627252
vt 0.875000 0.625000
vt 0.444950 0.619401
vt 0.125000 0.625000
vt 0.250000 0.625000
vt 0.750000 0.625000
vt 0.687500 0.625000
vt 0.312500 0.625000
vt 0.187500 0.625000
vt 0.812500 0.625000
vt 0.656250 0.625000
vt 0.343750 0.625000
vt 0.156250 0.625000
vt 0.843750 0.625000
vt 0.375000 0.625000
vt 0.500000 0.500000
vt 0.375000 0.500000
vt 0.500000 0.750000
vt 0.375000 0.750000
vt 0.625000 0.625000
vt 0.625000 0.750000
vt 0.375000 0.625000
vt 0.625000 0.500000
vt 0.375000 0.625000
vt 0.625000 0.625000
vt 0.375000 0.625000
vt 0.625000 0.625000
vt 0.375000 0.625000
vt 0.625000 0.625000
vt 0.125000 0.625000
vt 0.375000 0.125000
vt 0.375000 1.000000
vt 0.125000 0.750000
vt 0.375000 0.000000
vt 0.500000 1.000000
vt 0.500000 0.000000
vt 0.875000 0.750000
vt 0.625000 1.000000
vt 0.625000 0.000000
vt 0.500000 0.250000
vt 0.125000 0.500000
vt 0.375000 0.250000
vt 0.875000 0.625000
vt 0.625000 0.125000
vt 0.625000 0.250000
vt 0.875000 0.500000
vt 0.625000 0.625000
s 0
usemtl Material
f 3/9/1 8/18/1 7/17/1
f 91/135/2 12/22/2 93/137/2
f 6/16/3 1/2/3 5/15/3
f 70/114/4 5/15/4 1/1/4
f 69/112/5 6/16/5 91/135/5
f 12/22/6 15/25/6 16/26/6
f 8/18/7 10/20/7 7/17/7
f 6/16/8 11/21/8 12/22/8
f 7/17/9 92/136/9 90/134/9
f 94/138/10 16/26/10 15/25/10
f 92/136/11 14/24/11 94/138/11
f 93/137/12 16/26/12 95/139/12
f 9/19/13 14/24/13 10/20/13
f 25/45/14 104/157/14 35/55/14
f 19/35/15 24/44/15 20/37/15
f 34/54/16 28/48/16 22/42/16
f 21/41/17 18/31/17 22/42/17
f 58/100/18 21/41/18 36/56/18
f 22/42/19 57/97/19 34/54/19
f 28/48/20 31/51/20 27/47/20
f 26/46/21 24/44/21 23/43/21
f 22/42/22 27/47/22 21/41/22
f 33/53/23 23/43/23 36/56/23
f 81/125/24 32/52/24 104/157/24
f 33/53/25 30/50/25 26/46/25
f 35/55/26 32/52/26 28/48/26
f 30/50/27 25/45/27 26/46/27
f 80/124/28 99/147/28 54/92/28
f 54/91/29 98/145/29 68/110/29
f 24/44/30 57/97/30 20/38/30
f 78/122/31 85/129/31 49/81/31
f 50/83/32 82/126/32 66/108/32
f 48/79/33 59/101/33 63/105/33
f 71/115/34 47/77/34 75/119/34
f 44/72/35 60/102/35 61/103/35
f 72/116/36 44/71/36 73/117/36
f 73/117/37 52/88/37 77/121/37
f 65/107/38 44/72/38 61/103/38
f 59/101/39 42/67/39 62/104/39
f 71/115/40 41/65/40 39/61/40
f 75/119/41 55/93/41 79/123/41
f 67/109/42 48/79/42 63/105/42
f 38/60/43 64/106/43 60/102/43
f 72/116/44 46/75/44 38/59/44
f 84/128/45 52/87/45 65/107/45
f 77/121/46 87/131/46 86/130/46
f 42/67/47 66/108/47 62/104/47
f 74/118/48 49/81/48 41/65/48
f 100/150/49 56/95/49 67/109/49
f 79/123/50 97/143/50 96/140/50
f 46/76/51 68/110/51 64/106/51
f 76/120/52 54/92/52 46/75/52
f 47/78/53 68/110/53 55/94/53
f 100/150/54 53/89/54 101/152/54
f 43/69/55 66/108/55 51/85/55
f 84/128/56 49/82/56 85/129/56
f 60/102/57 47/78/57 39/62/57
f 67/109/58 45/73/58 53/89/58
f 37/57/59 62/104/59 43/69/59
f 65/107/60 41/66/60 49/82/60
f 61/103/61 39/62/61 41/66/61
f 63/105/62 37/57/62 45/73/62
f 51/85/63 82/126/63 83/127/63
f 27/47/64 36/56/64 21/41/64
f 55/94/65 98/145/65 97/142/65
f 30/50/66 104/157/66 29/49/66
f 56/96/67 76/120/67 48/80/67
f 101/151/68 79/123/68 96/140/68
f 51/86/69 74/118/69 43/70/69
f 89/133/70 77/121/70 86/130/70
f 48/80/71 72/116/71 40/64/71
f 53/90/72 75/119/72 79/123/72
f 43/70/73 71/115/73 37/58/73
f 50/84/74 73/117/74 77/121/74
f 42/68/75 72/116/75 73/117/75
f 45/74/76 71/115/76 75/119/76
f 83/127/77 78/122/77 51/86/77
f 31/51/78 33/53/78 27/47/78
f 103/156/79 80/124/79 56/96/79
f 3/10/80 82/126/80 4/11/80
f 1/3/81 84/128/81 85/129/81
f 2/7/82 86/130/82 87/131/82
f 3/10/83 88/132/83 83/127/83
f 4/11/84 82/126/84 89/133/84
f 2/7/85 87/131/85 84/128/85
f 4/13/86 86/130/86 69/111/86
f 1/3/87 88/132/87 70/113/87
f 93/137/88 13/23/88 9/19/88
f 92/136/89 15/25/89 11/21/89
f 13/23/90 94/138/90 14/24/90
f 5/15/91 92/136/91 11/21/91
f 8/18/92 69/112/92 91/135/92
f 7/17/93 70/114/93 3/8/93
f 91/135/94 9/19/94 8/18/94
f 17/29/95 96/141/95 97/144/95
f 18/30/96 98/146/96 99/149/96
f 19/36/97 100/150/97 101/152/97
f 20/40/98 102/154/98 103/155/98
f 17/29/99 98/146/99 18/30/99
f 20/40/100 103/155/100 100/150/100
f 19/36/101 96/141/101 58/99/101
f 18/33/102 102/154/102 57/98/102
f 58/100/103 23/43/103 19/34/103
f 25/45/104 34/54/104 24/44/104
f 3/9/105 4/12/105 8/18/105
f 91/135/106 6/16/106 12/22/106
f 6/16/107 2/4/107 1/2/107
f 70/114/108 90/134/108 5/15/108
f 69/112/109 2/5/109 6/16/109
f 12/22/110 11/21/110 15/25/110
f 8/18/111 9/19/111 10/20/111
f 6/16/112 5/15/112 11/21/112
f 7/17/113 10/20/113 92/136/113
f 94/138/114 95/139/114 16/26/114
f 92/136/115 10/20/115 14/24/115
f 93/137/116 12/22/116 16/26/116
f 9/19/117 13/23/117 14/24/117
f 25/45/118 29/49/118 104/157/118
f 19/35/119 23/43/119 24/44/119
f 34/54/120 35/55/120 28/48/120
f 21/41/121 17/27/121 18/31/121
f 58/100/122 17/28/122 21/41/122
f 22/42/123 18/32/123 57/97/123
f 28/48/124 32/52/124 31/51/124
f 26/46/125 25/45/125 24/44/125
f 22/42/126 28/48/126 27/47/126
f 33/53/127 26/46/127 23/43/127
f 81/125/128 31/51/128 32/52/128
f 33/53/129 81/125/129 30/50/129
f 35/55/130 104/157/130 32/52/130
f 30/50/131 29/49/131 25/45/131
f 80/124/132 102/153/132 99/147/132
f 54/91/133 99/148/133 98/145/133
f 24/44/134 34/54/134 57/97/134
f 78/122/135 88/132/135 85/129/135
f 50/83/136 89/133/136 82/126/136
f 48/79/137 40/63/137 59/101/137
f 71/115/138 39/61/138 47/77/138
f 44/72/139 38/60/139 60/102/139
f 72/116/140 38/59/140 44/71/140
f 73/117/141 44/71/141 52/88/141
f 65/107/142 52/87/142 44/72/142
f 59/101/143 40/63/143 42/67/143
f 71/115/144 74/118/144 41/65/144
f 75/119/145 47/77/145 55/93/145
f 67/109/146 56/95/146 48/79/146
f 38/60/147 46/76/147 64/106/147
f 72/116/148 76/120/148 46/75/148
f 84/128/149 87/131/149 52/87/149
f 77/121/150 52/88/150 87/131/150
f 42/67/151 50/83/151 66/108/151
f 74/118/152 78/122/152 49/81/152
f 100/150/153 103/155/153 56/95/153
f 79/123/154 55/93/154 97/143/154
f 46/76/155 54/91/155 68/110/155
f 76/120/156 80/124/156 54/92/156
f 47/78/157 64/106/157 68/110/157
f 100/150/158 67/109/158 53/89/158
f 43/69/159 62/104/159 66/108/159
f 84/128/160 65/107/160 49/82/160
f 60/102/161 64/106/161 47/78/161
f 67/109/162 63/105/162 45/73/162
f 37/57/163 59/101/163 62/104/163
f 65/107/164 61/103/164 41/66/164
f 61/103/165 60/102/165 39/62/165
f 63/105/166 59/101/166 37/57/166
f 51/85/167 66/108/167 82/126/167
f 27/47/168 33/53/168 36/56/168
f 55/94/169 68/110/169 98/145/169
f 30/50/170 81/125/170 104/157/170
f 56/96/171 80/124/171 76/120/171
f 101/151/172 53/90/172 79/123/172
f 51/86/173 78/122/173 74/118/173
f 89/133/174 50/84/174 77/121/174
f 48/80/175 76/120/175 72/116/175
f 53/90/176 45/74/176 75/119/176
f 43/70/177 74/118/177 71/115/177
f 50/84/178 42/68/178 73/117/178
f 42/68/179 40/64/179 72/116/179
f 45/74/180 37/58/180 71/115/180
f 83/127/181 88/132/181 78/122/181
f 31/51/129 81/125/129 33/53/129
f 103/156/182 102/153/182 80/124/182
f 3/10/183 83/127/183 82/126/183
f 1/3/184 2/6/184 84/128/184
f 2/7/185 69/111/185 86/130/185
f 3/10/186 70/113/186 88/132/186
f 4/13/187 89/133/187 86/130/187
f 1/3/188 85/129/188 88/132/188
f 93/137/189 95/139/189 13/23/189
f 92/136/190 94/138/190 15/25/190
f 13/23/191 95/139/191 94/138/191
f 5/15/192 90/134/192 92/136/192
f 8/18/193 4/14/193 69/112/193
f 7/17/194 90/134/194 70/114/194
f 91/135/195 93/137/195 9/19/195
f 17/29/196 58/99/196 96/141/196
f 19/36/197 20/39/197 100/150/197
f 20/40/198 57/98/198 102/154/198
f 17/29/199 97/144/199 98/146/199
f 19/36/200 101/152/200 96/141/200
f 18/33/201 99/149/201 102/154/201
f 58/100/202 36/56/202 23/43/202
f 25/45/203 35/55/203 34/54/203
