# Blender 3.1.0
# www.blender.org
mtllib WormSubSegmentTest.mtl
o Torus
v -0.815000 0.174785 -0.007568
v -0.808791 0.180000 -0.007568
v -0.808791 0.180000 0.007568
v -0.815000 0.174785 0.007568
v 0.591527 0.000000 -0.341518
v 0.537751 0.052147 -0.310471
v 0.483976 0.000000 -0.279424
v 0.537751 -0.052147 -0.310471
v 0.341518 0.000000 -0.591527
v 0.310471 0.052147 -0.537751
v 0.279424 0.000000 -0.483976
v 0.310471 -0.052147 -0.537751
v 0.815000 -0.174785 -0.007568
v 0.808791 -0.180000 -0.007568
v 0.808791 -0.180000 0.007568
v 0.815000 -0.174785 0.007568
v -0.341518 0.000000 -0.591527
v -0.310471 0.052147 -0.537752
v -0.279424 0.000000 -0.483976
v -0.310471 -0.052147 -0.537752
v -0.591527 0.000000 -0.341518
v -0.537751 0.052147 -0.310471
v -0.483976 0.000000 -0.279424
v -0.537751 -0.052147 -0.310471
v 0.007568 0.174785 -0.815000
v 0.007568 0.180000 -0.808791
v -0.007568 0.180000 -0.808791
v -0.007568 0.174785 -0.815000
v -0.591527 0.000000 0.341518
v -0.537752 0.052147 0.310471
v -0.483976 0.000000 0.279424
v -0.537752 -0.052147 0.310471
v -0.341518 0.000000 0.591527
v -0.310471 0.052147 0.537752
v -0.279424 0.000000 0.483976
v -0.310471 -0.052147 0.537752
v 0.815000 0.174785 0.007568
v 0.808791 0.180000 0.007568
v 0.808791 0.180000 -0.007568
v 0.815000 0.174785 -0.007568
v 0.341518 0.000000 0.591527
v 0.310471 0.052147 0.537751
v 0.279424 0.000000 0.483976
v 0.310471 -0.052147 0.537751
v 0.591527 0.000000 0.341518
v 0.537751 0.052147 0.310471
v 0.483976 0.000000 0.279424
v 0.537751 -0.052147 0.310471
v 0.662758 0.000000 0.075677
v 0.662758 0.000000 -0.075677
v 0.600664 0.052147 -0.075677
v 0.600664 0.052147 0.075677
v 0.538570 0.000000 -0.075677
v 0.538570 0.000000 0.075677
v 0.600664 -0.052147 -0.075677
v 0.600664 -0.052147 0.075677
v 0.075677 0.000000 -0.662758
v -0.075677 0.000000 -0.662758
v -0.075677 0.052147 -0.600664
v 0.075677 0.052147 -0.600664
v -0.075677 0.000000 -0.538570
v 0.075677 0.000000 -0.538570
v -0.075677 -0.052147 -0.600664
v 0.075677 -0.052147 -0.600664
v -0.662758 0.000000 -0.075677
v -0.662758 0.000000 0.075677
v -0.600664 0.052147 0.075677
v -0.600664 0.052147 -0.075677
v -0.538570 0.000000 0.075677
v -0.538570 0.000000 -0.075677
v -0.600664 -0.052147 0.075677
v -0.600664 -0.052147 -0.075677
v -0.075677 0.000000 0.662758
v 0.075677 0.000000 0.662758
v 0.075677 0.052147 0.600664
v -0.075677 0.052147 0.600664
v -0.075677 0.000000 0.538570
v 0.075677 0.000000 0.538570
v 0.075677 -0.052147 0.600664
v -0.075677 -0.052147 0.600664
v 0.007568 0.174785 0.815000
v 0.007568 0.180000 0.808791
v -0.007568 0.180000 0.808791
v -0.007568 0.174785 0.815000
v -0.815000 -0.174785 -0.007568
v -0.808791 -0.180000 -0.007568
v -0.808791 -0.180000 0.007568
v -0.815000 -0.174785 0.007568
v 0.007568 -0.174785 -0.815000
v 0.007568 -0.180000 -0.808791
v -0.007568 -0.180000 -0.808791
v -0.007568 -0.174785 -0.815000
v -0.007568 -0.174785 0.815000
v -0.007568 -0.180000 0.808791
v 0.007568 -0.180000 0.808791
v 0.007568 -0.174785 0.815000
vn 0.4314 -0.3623 -0.1156
vn -0.4314 -0.3623 -0.1156
vn 0.1156 -0.3623 -0.4314
vn 0.4314 -0.3623 0.1156
vn 0.3158 0.3623 -0.3158
vn -0.3158 0.3623 0.3158
vn -0.3158 -0.3623 0.3158
vn 0.3158 -0.3623 -0.3158
vn -0.1156 -0.3623 -0.4314
vn 0.1156 -0.3623 0.4314
vn 0.1156 0.3623 -0.4314
vn 0.1156 0.3623 0.4314
vn -0.1156 0.3623 0.4314
vn -0.1156 -0.3623 0.4314
vn -0.1156 0.3623 -0.4314
vn -0.3158 0.3623 -0.3158
vn 0.3158 0.3623 0.3158
vn 0.3158 -0.3623 0.3158
vn -0.3158 -0.3623 -0.3158
vn -0.4314 0.3623 0.1156
vn -0.4314 0.3623 -0.1156
vn -0.4314 -0.3623 0.1156
vn 0.4314 0.3623 0.1156
vn 0.4314 0.3623 -0.1156
vn 0.4391 0.3687 -0.0000
vn -0.4391 0.3687 -0.0000
vn -0.4391 -0.3687 -0.0000
vn -0.0000 0.3687 0.4391
vn -0.0000 -0.3687 0.4391
vn 0.4391 -0.3687 -0.0000
vn -0.0000 -0.3687 -0.4391
vn -0.0000 0.3687 -0.4391
vn 0.1134 0.0952 -0.5999
vn -0.3666 0.4209 -0.0000
vn 0.1134 0.0952 0.5999
vn 0.5012 -0.3079 -0.0000
vn -0.5999 0.0952 -0.1134
vn -0.0000 0.4209 0.3666
vn 0.5999 0.0952 -0.1134
vn -0.0000 -0.3079 -0.5012
vn 0.1134 -0.0952 0.5999
vn -0.3666 -0.4209 -0.0000
vn 0.1134 -0.0952 -0.5999
vn 0.5012 0.3079 -0.0000
vn -0.1134 0.0952 0.5999
vn 0.3666 0.4209 -0.0000
vn -0.1134 0.0952 -0.5999
vn -0.5012 -0.3079 -0.0000
vn 0.5999 0.0952 0.1134
vn -0.0000 0.4209 -0.3666
vn -0.5999 0.0952 0.1134
vn -0.0000 -0.3079 0.5012
vn -0.1134 -0.0952 -0.5999
vn 0.3666 -0.4209 -0.0000
vn -0.1134 -0.0952 0.5999
vn -0.5012 0.3079 -0.0000
vn 0.5999 -0.0952 -0.1134
vn -0.0000 -0.4209 0.3666
vn -0.5999 -0.0952 -0.1134
vn -0.0000 0.3079 -0.5012
vn -0.5999 -0.0952 0.1134
vn -0.0000 -0.4209 -0.3666
vn 0.5999 -0.0952 0.1134
vn -0.0000 0.3079 0.5012
vt 0.000000 0.540820
vt 0.000000 0.750000
vt 0.020313 0.750000
vt 0.018466 0.500000
vt 0.583333 0.500000
vt 0.583333 0.750000
vt 0.583333 1.000000
vt 0.583333 0.000000
vt 0.583333 0.250000
vt 0.666667 0.500000
vt 0.666667 0.750000
vt 0.666667 1.000000
vt 0.666667 0.000000
vt 0.666667 0.250000
vt 0.518466 0.500000
vt 0.520313 0.250000
vt 0.479687 0.250000
vt 0.481534 0.500000
vt 0.833333 0.500000
vt 0.833333 0.750000
vt 0.833333 0.000000
vt 0.833333 1.000000
vt 0.833333 0.250000
vt 0.916667 0.500000
vt 0.916667 0.750000
vt 0.916667 0.000000
vt 0.916667 1.000000
vt 0.916667 0.250000
vt 0.731534 0.500000
vt 0.729687 0.750000
vt 0.770312 0.750000
vt 0.768466 0.500000
vt 0.083333 0.500000
vt 0.083333 0.750000
vt 0.083333 0.000000
vt 0.083333 1.000000
vt 0.083333 0.250000
vt 0.166667 0.500000
vt 0.166667 0.750000
vt 0.166667 1.000000
vt 0.166667 0.000000
vt 0.166667 0.250000
vt 0.481534 0.500000
vt 0.479688 0.750000
vt 0.520312 0.750000
vt 0.518466 0.500000
vt 0.333333 0.500000
vt 0.333333 0.750000
vt 0.333333 1.000000
vt 0.333333 0.000000
vt 0.333333 0.250000
vt 0.416667 0.500000
vt 0.416667 0.750000
vt 0.416667 0.000000
vt 0.416667 1.000000
vt 0.416667 0.250000
vt 0.481534 0.500000
vt 0.518466 0.500000
vt 0.520312 0.750000
vt 0.479688 0.750000
vt 0.522569 0.000000
vt 0.522569 1.000000
vt 0.477431 1.000000
vt 0.477431 0.000000
vt 0.520312 0.250000
vt 0.479687 0.250000
vt 0.731534 0.500000
vt 0.768466 0.500000
vt 0.770312 0.750000
vt 0.729687 0.750000
vt 0.772569 0.000000
vt 0.772569 1.000000
vt 0.727431 1.000000
vt 0.727431 0.000000
vt 0.770312 0.250000
vt 0.729688 0.250000
vt 0.000000 0.459180
vt 0.981534 0.500000
vt 0.000000 0.540820
vt 0.018466 0.500000
vt 0.020313 0.750000
vt 0.979688 0.750000
vt 0.000000 0.790820
vt 0.000000 0.750000
vt 0.022569 1.000000
vt 0.022569 0.000000
vt 0.000000 0.000000
vt 0.977431 1.000000
vt 0.977431 0.000000
vt 0.000000 1.000000
vt 0.020313 0.250000
vt 0.979688 0.250000
vt 0.000000 0.209180
vt 0.000000 0.250000
vt 0.231534 0.500000
vt 0.268466 0.500000
vt 0.270313 0.750000
vt 0.229687 0.750000
vt 0.227431 0.000000
vt 0.227431 1.000000
vt 0.272569 0.000000
vt 0.272569 1.000000
vt 0.270313 0.250000
vt 0.229687 0.250000
vt 0.268466 0.500000
vt 0.270313 0.750000
vt 0.229687 0.750000
vt 0.231534 0.500000
vt 0.000000 0.459180
vt 0.000000 0.250000
vt 0.020313 0.250000
vt 0.018466 0.500000
vt 0.731534 0.500000
vt 0.729688 0.250000
vt 0.770312 0.250000
vt 0.768466 0.500000
vt 0.231534 0.500000
vt 0.229687 0.250000
vt 0.270313 0.250000
vt 0.268466 0.500000
s 0
f 55/65/1 5/5/1 50/58/1
f 54/64/2 48/56/2 47/54/2
f 64/76/3 9/10/3 12/14/3
f 56/66/4 45/52/4 48/56/4
f 9/10/5 6/6/5 5/5/5
f 6/6/6 11/12/6 7/7/6
f 11/13/7 8/9/7 7/8/7
f 12/14/8 5/5/8 8/9/8
f 20/23/9 58/68/9 63/75/9
f 61/71/10 20/23/10 63/75/10
f 72/92/2 21/24/2 24/28/2
f 9/10/11 60/70/11 10/11/11
f 18/20/12 61/72/12 59/69/12
f 10/11/13 62/73/13 11/12/13
f 62/74/14 12/14/14 11/13/14
f 17/19/15 59/69/15 58/68/15
f 17/19/16 22/25/16 18/20/16
f 22/25/17 19/22/17 18/20/17
f 23/26/18 20/23/18 19/21/18
f 20/23/19 21/24/19 17/19/19
f 29/33/20 67/81/20 66/80/20
f 31/35/1 71/91/1 69/86/1
f 80/104/14 33/38/14 36/42/14
f 21/24/21 68/82/21 22/25/21
f 32/37/22 66/80/22 71/91/22
f 68/82/23 23/27/23 22/25/23
f 70/89/4 24/28/4 23/26/4
f 67/81/24 31/36/24 69/85/24
f 29/33/6 34/39/6 30/34/6
f 30/34/5 35/40/5 31/36/5
f 35/41/8 32/37/8 31/35/8
f 36/42/7 29/33/7 32/37/7
f 41/47/12 75/97/12 74/96/12
f 42/48/15 78/102/15 75/97/15
f 40/46/25 38/44/25 37/43/25
f 73/95/13 34/39/13 33/38/13
f 79/103/10 41/47/10 74/96/10
f 78/101/9 44/51/9 79/103/9
f 77/99/3 36/42/3 35/41/3
f 34/39/11 77/100/11 35/40/11
f 45/52/17 42/48/17 41/47/17
f 46/53/16 43/49/16 42/48/16
f 43/50/19 48/56/19 44/51/19
f 48/56/18 41/47/18 44/51/18
f 5/5/24 51/59/24 50/58/24
f 6/6/20 53/62/20 51/59/20
f 53/61/22 8/9/22 55/65/22
f 52/60/21 47/55/21 46/53/21
f 53/62/26 52/60/26 51/59/26
f 55/65/27 54/64/27 53/61/27
f 59/69/28 62/73/28 60/70/28
f 63/75/29 62/74/29 61/71/29
f 69/85/25 68/83/25 67/81/25
f 69/86/30 72/93/30 70/87/30
f 79/103/31 77/99/31 78/101/31
f 75/97/32 77/100/32 76/98/32
f 45/52/23 52/60/23 46/53/23
f 39/45/33 50/58/33 51/59/33
f 38/44/34 51/59/34 52/60/34
f 49/57/35 38/44/35 52/60/35
f 40/46/36 49/57/36 50/58/36
f 27/31/32 25/29/32 28/32/32
f 59/69/37 28/32/37 58/68/37
f 26/30/38 59/69/38 60/70/38
f 57/67/39 26/30/39 60/70/39
f 28/32/40 57/67/40 58/68/40
f 16/18/30 14/16/30 13/15/30
f 15/17/41 49/57/41 56/66/41
f 14/16/42 56/66/42 55/65/42
f 50/58/43 14/16/43 55/65/43
f 16/18/44 50/58/44 49/57/44
f 3/3/26 1/1/26 4/4/26
f 3/3/45 66/80/45 67/81/45
f 2/2/46 67/81/46 68/84/46
f 1/1/47 68/84/47 65/79/47
f 4/4/48 65/79/48 66/80/48
f 82/106/28 84/108/28 81/105/28
f 82/106/49 74/96/49 75/97/49
f 83/107/50 75/97/50 76/98/50
f 73/95/51 83/107/51 76/98/51
f 81/105/52 73/95/52 74/96/52
f 86/110/27 88/112/27 85/109/27
f 72/94/53 85/109/53 65/77/53
f 71/91/54 86/110/54 72/94/54
f 66/80/55 87/111/55 71/91/55
f 85/109/56 66/80/56 65/77/56
f 90/114/31 92/116/31 89/113/31
f 90/114/57 57/67/57 64/76/57
f 91/115/58 64/76/58 63/75/58
f 58/68/59 91/115/59 63/75/59
f 89/113/60 58/68/60 57/67/60
f 94/118/29 96/120/29 93/117/29
f 80/104/61 93/117/61 73/95/61
f 95/119/62 80/104/62 79/103/62
f 74/96/63 95/119/63 79/103/63
f 93/117/64 74/96/64 73/95/64
f 55/65/1 8/9/1 5/5/1
f 54/64/2 56/66/2 48/56/2
f 64/76/3 57/67/3 9/10/3
f 56/66/4 49/57/4 45/52/4
f 9/10/5 10/11/5 6/6/5
f 6/6/6 10/11/6 11/12/6
f 11/13/7 12/14/7 8/9/7
f 12/14/8 9/10/8 5/5/8
f 20/23/9 17/19/9 58/68/9
f 61/71/10 19/21/10 20/23/10
f 72/92/2 65/78/2 21/24/2
f 9/10/11 57/67/11 60/70/11
f 18/20/12 19/22/12 61/72/12
f 10/11/13 60/70/13 62/73/13
f 62/74/14 64/76/14 12/14/14
f 17/19/15 18/20/15 59/69/15
f 17/19/16 21/24/16 22/25/16
f 22/25/17 23/27/17 19/22/17
f 23/26/18 24/28/18 20/23/18
f 20/23/19 24/28/19 21/24/19
f 29/33/20 30/34/20 67/81/20
f 31/35/1 32/37/1 71/91/1
f 80/104/14 73/95/14 33/38/14
f 21/24/21 65/78/21 68/82/21
f 32/37/22 29/33/22 66/80/22
f 68/82/23 70/88/23 23/27/23
f 70/89/4 72/92/4 24/28/4
f 67/81/24 30/34/24 31/36/24
f 29/33/6 33/38/6 34/39/6
f 30/34/5 34/39/5 35/40/5
f 35/41/8 36/42/8 32/37/8
f 36/42/7 33/38/7 29/33/7
f 41/47/12 42/48/12 75/97/12
f 42/48/15 43/49/15 78/102/15
f 40/46/25 39/45/25 38/44/25
f 73/95/13 76/98/13 34/39/13
f 79/103/10 44/51/10 41/47/10
f 78/101/9 43/50/9 44/51/9
f 77/99/3 80/104/3 36/42/3
f 34/39/11 76/98/11 77/100/11
f 45/52/17 46/53/17 42/48/17
f 46/53/16 47/55/16 43/49/16
f 43/50/19 47/54/19 48/56/19
f 48/56/18 45/52/18 41/47/18
f 5/5/24 6/6/24 51/59/24
f 6/6/20 7/7/20 53/62/20
f 53/61/22 7/8/22 8/9/22
f 52/60/21 54/63/21 47/55/21
f 53/62/26 54/63/26 52/60/26
f 55/65/27 56/66/27 54/64/27
f 59/69/28 61/72/28 62/73/28
f 63/75/29 64/76/29 62/74/29
f 69/85/25 70/90/25 68/83/25
f 69/86/30 71/91/30 72/93/30
f 79/103/31 80/104/31 77/99/31
f 75/97/32 78/102/32 77/100/32
f 45/52/23 49/57/23 52/60/23
f 39/45/33 40/46/33 50/58/33
f 38/44/34 39/45/34 51/59/34
f 49/57/35 37/43/35 38/44/35
f 40/46/36 37/43/36 49/57/36
f 27/31/32 26/30/32 25/29/32
f 59/69/37 27/31/37 28/32/37
f 26/30/38 27/31/38 59/69/38
f 57/67/39 25/29/39 26/30/39
f 28/32/40 25/29/40 57/67/40
f 16/18/30 15/17/30 14/16/30
f 15/17/41 16/18/41 49/57/41
f 14/16/42 15/17/42 56/66/42
f 50/58/43 13/15/43 14/16/43
f 16/18/44 13/15/44 50/58/44
f 3/3/26 2/2/26 1/1/26
f 3/3/45 4/4/45 66/80/45
f 2/2/46 3/3/46 67/81/46
f 1/1/47 2/2/47 68/84/47
f 4/4/48 1/1/48 65/79/48
f 82/106/28 83/107/28 84/108/28
f 82/106/49 81/105/49 74/96/49
f 83/107/50 82/106/50 75/97/50
f 73/95/51 84/108/51 83/107/51
f 81/105/52 84/108/52 73/95/52
f 86/110/27 87/111/27 88/112/27
f 72/94/53 86/110/53 85/109/53
f 71/91/54 87/111/54 86/110/54
f 66/80/55 88/112/55 87/111/55
f 85/109/56 88/112/56 66/80/56
f 90/114/31 91/115/31 92/116/31
f 90/114/57 89/113/57 57/67/57
f 91/115/58 90/114/58 64/76/58
f 58/68/59 92/116/59 91/115/59
f 89/113/60 92/116/60 58/68/60
f 94/118/29 95/119/29 96/120/29
f 80/104/61 94/118/61 93/117/61
f 95/119/62 94/118/62 80/104/62
f 74/96/63 96/120/63 95/119/63
f 93/117/64 96/120/64 74/96/64
