# Blender 3.1.0
# www.blender.org
mtllib WormHead.mtl
o Cube
v 0.289367 -0.234035 1.404816
v -0.946334 -0.234035 0.090883
v -0.946334 0.330266 0.090883
v 0.946334 -0.234035 0.090883
v 0.946334 0.330266 0.090883
v 0.000000 -0.354037 -0.757828
v 0.000000 0.504913 -0.757828
v -1.452916 0.290176 -0.627360
v -1.452916 -0.139299 -0.627360
v 0.000000 -0.031931 -1.518318
v 0.000000 0.182807 -1.518318
v 1.452916 0.290176 -0.627360
v 1.452916 -0.139299 -0.627360
v -1.000000 -0.354037 -0.016450
v -1.000000 0.504913 -0.016450
v 0.000000 -0.354037 1.983550
v -0.289367 -0.234035 1.404816
v 1.000000 0.504913 -0.016450
v 1.000000 -0.354037 -0.016450
v -0.633983 -0.139985 0.109481
v -0.341668 -0.139985 0.766448
v -0.633983 0.142165 0.109481
v 0.633983 0.142165 0.109481
v 0.633983 -0.139985 0.109481
v 0.341668 -0.139985 0.766448
vn 0.3279 0.9304 0.1639
vn 0.8033 -0.0000 0.5956
vn 0.5045 -0.8518 -0.1413
vn -0.0000 -1.0000 -0.0000
vn -0.0000 0.9188 0.3946
vn 0.1618 -0.9624 -0.2183
vn 0.5228 -0.0000 -0.8525
vn -0.0000 1.0000 -0.0000
vn -0.5228 -0.0000 -0.8525
vn -0.1687 -0.9076 -0.3844
vn -0.1618 0.9624 -0.2183
vn 0.1687 0.9076 -0.3844
vn -0.8033 -0.0000 0.5956
vn -0.8944 -0.0000 0.4472
vn 0.8944 -0.0000 0.4472
vn -0.9136 -0.0000 0.4065
vn 0.9136 -0.0000 0.4065
vn -0.0594 -0.0000 0.9982
vn -0.5578 -0.8265 -0.0761
vn 0.0594 -0.0000 0.9982
vn -0.2930 0.9472 0.1304
vn 0.2930 0.9472 0.1304
vn 0.5578 -0.8265 -0.0761
vn 0.1687 -0.9076 -0.3844
vn -0.1618 -0.9624 -0.2183
vn -0.1687 0.9076 -0.3844
vn 0.1618 0.9624 -0.2183
vn -0.5045 -0.8518 -0.1413
vn -0.3279 0.9304 0.1639
vt 0.409927 0.677658
vt 0.423343 0.236583
vt 0.587585 0.236583
vt 0.409927 0.513417
vt 0.574168 0.513417
vt 0.250000 0.500000
vt 0.750000 0.500000
vt 0.875000 0.500000
vt 0.625000 0.250000
vt 0.375000 0.250000
vt 0.125000 0.500000
vt 0.250000 0.500000
vt 0.375000 0.375000
vt 0.625000 0.375000
vt 0.750000 0.500000
vt 0.625000 0.500000
vt 0.375000 0.500000
vt 0.125000 0.500000
vt 0.375000 0.250000
vt 0.875000 0.500000
vt 0.625000 0.250000
vt 0.625000 0.750000
vt 0.125000 0.750000
vt 0.375000 0.750000
vt 0.625000 0.000000
vt 0.587585 0.072342
vt 0.625000 0.500000
vt 0.375000 0.500000
vt 0.423343 0.236583
vt 0.587585 0.072342
vt 0.587585 0.236583
vt 0.574168 0.513417
vt 0.409927 0.513417
vt 0.409927 0.677658
s 0
f 4/4/1 25/34/1 1/1/1
f 18/27/2 13/17/2 12/16/2
f 5/5/3 25/34/3 23/32/3
f 14/18/4 6/6/4 19/28/4
f 18/27/5 15/20/5 16/22/5
f 6/6/6 13/17/6 19/28/6
f 11/14/7 13/17/7 10/13/7
f 15/20/8 18/27/8 7/7/8
f 19/28/4 16/23/4 14/18/4
f 8/9/9 10/13/9 9/10/9
f 6/6/10 9/11/10 10/12/10
f 7/7/11 8/8/11 15/20/11
f 7/7/12 12/16/12 11/15/12
f 14/19/13 8/9/13 9/10/13
f 17/26/14 14/19/14 16/25/14
f 3/3/14 14/19/14 2/2/14
f 5/5/15 19/28/15 18/27/15
f 1/1/15 19/28/15 4/4/15
f 17/26/14 15/21/14 3/3/14
f 1/1/15 18/27/15 16/24/15
f 21/30/16 22/31/16 20/29/16
f 24/33/17 23/32/17 25/34/17
f 2/2/18 22/31/18 3/3/18
f 3/3/19 21/30/19 17/26/19
f 4/4/20 23/32/20 24/33/20
f 2/2/21 21/30/21 20/29/21
f 4/4/22 24/33/22 25/34/22
f 18/27/2 19/28/2 13/17/2
f 5/5/23 1/1/23 25/34/23
f 6/6/24 10/12/24 13/17/24
f 11/14/7 12/16/7 13/17/7
f 8/9/9 11/14/9 10/13/9
f 6/6/25 14/18/25 9/11/25
f 7/7/26 11/15/26 8/8/26
f 7/7/27 18/27/27 12/16/27
f 14/19/13 15/21/13 8/9/13
f 17/26/14 2/2/14 14/19/14
f 3/3/14 15/21/14 14/19/14
f 5/5/15 4/4/15 19/28/15
f 1/1/15 16/24/15 19/28/15
f 17/26/14 16/25/14 15/21/14
f 1/1/15 5/5/15 18/27/15
f 2/2/18 20/29/18 22/31/18
f 3/3/28 22/31/28 21/30/28
f 4/4/20 5/5/20 23/32/20
f 2/2/29 17/26/29 21/30/29
