# Blender 3.1.0
# www.blender.org
mtllib BuildingTest.mtl
o Cube
v 0.886863 7.969897 -0.886863
v 1.000000 -0.030103 -1.000000
v 0.886863 7.969897 0.886863
v 1.000000 -0.030103 1.000000
v -0.886863 7.969897 -0.886863
v -1.000000 -0.030103 -1.000000
v -0.886863 7.969897 0.886863
v -1.000000 -0.030103 1.000000
v 1.000000 7.969897 1.000000
v -1.000000 7.969897 1.000000
v 1.000000 7.969897 -1.000000
v -1.000000 7.969897 -1.000000
v 0.633762 7.881503 0.633762
v -0.633762 7.881503 0.633762
v 0.633762 7.881503 -0.633762
v -0.633762 7.881503 -0.633762
v 0.856195 7.881503 0.856195
v -0.856195 7.881503 0.856195
v 0.856195 7.881503 -0.856195
v -0.856195 7.881503 -0.856195
v 0.633762 8.135719 0.633762
v -0.633762 8.135719 0.633762
v 0.633762 8.135719 -0.633762
v -0.633762 8.135719 -0.633762
vn 0.9448 0.3278 -0.0000
vn -0.0000 -0.0000 1.0000
vn -1.0000 -0.0000 -0.0000
vn 1.0000 -0.0000 -0.0000
vn -0.0000 1.0000 -0.0000
vn -0.0000 -0.0000 -1.0000
vn -0.0000 0.3278 -0.9448
vn -0.0000 0.3278 0.9448
vn -0.9448 0.3278 -0.0000
vt 0.639142 0.514142
vt 0.375000 0.500000
vt 0.639142 0.735858
vt 0.375000 0.750000
vt 0.860858 0.514142
vt 0.375000 0.250000
vt 0.860858 0.735858
vt 0.375000 0.000000
vt 0.375000 1.000000
vt 0.625000 0.750000
vt 0.625000 1.000000
vt 0.625000 0.000000
vt 0.875000 0.750000
vt 0.625000 0.500000
vt 0.875000 0.500000
vt 0.625000 0.250000
vt 0.667942 0.707058
vt 0.832058 0.707058
vt 0.667942 0.542942
vt 0.832058 0.542942
vt 0.639142 0.735858
vt 0.860858 0.735858
vt 0.639142 0.514142
vt 0.860858 0.514142
vt 0.667942 0.707058
vt 0.832058 0.707058
vt 0.667942 0.542942
vt 0.832058 0.542942
s 0
usemtl Material
f 7/7/1 20/24/1 5/5/1
f 9/10/2 8/9/2 4/4/2
f 10/12/3 6/6/3 8/8/3
f 11/14/4 4/4/4 2/2/4
f 3/3/5 10/13/5 9/10/5
f 1/1/5 9/10/5 11/14/5
f 7/7/5 12/15/5 10/13/5
f 5/5/5 11/14/5 12/15/5
f 16/20/6 23/27/6 15/19/6
f 3/3/7 18/22/7 7/7/7
f 5/5/8 19/23/8 1/1/8
f 1/1/9 17/21/9 3/3/9
f 12/16/6 2/2/6 6/6/6
f 13/17/5 18/22/5 17/21/5
f 15/19/5 17/21/5 19/23/5
f 14/18/5 20/24/5 18/22/5
f 16/20/5 19/23/5 20/24/5
f 24/28/5 21/25/5 23/27/5
f 15/19/4 21/25/4 13/17/4
f 14/18/3 24/28/3 16/20/3
f 13/17/2 22/26/2 14/18/2
f 7/7/1 18/22/1 20/24/1
f 9/10/2 10/11/2 8/9/2
f 10/12/3 12/16/3 6/6/3
f 11/14/4 9/10/4 4/4/4
f 3/3/5 7/7/5 10/13/5
f 1/1/5 3/3/5 9/10/5
f 7/7/5 5/5/5 12/15/5
f 5/5/5 1/1/5 11/14/5
f 16/20/6 24/28/6 23/27/6
f 3/3/7 17/21/7 18/22/7
f 5/5/8 20/24/8 19/23/8
f 1/1/9 19/23/9 17/21/9
f 12/16/6 11/14/6 2/2/6
f 13/17/5 14/18/5 18/22/5
f 15/19/5 13/17/5 17/21/5
f 14/18/5 16/20/5 20/24/5
f 16/20/5 15/19/5 19/23/5
f 24/28/5 22/26/5 21/25/5
f 15/19/4 23/27/4 21/25/4
f 14/18/3 22/26/3 24/28/3
f 13/17/2 21/25/2 22/26/2
