# Blender 3.1.0
# www.blender.org
mtllib MegaBuilding2.mtl
o Cube.001
v -3.709160 3.907577 5.000000
v -3.709160 29.193352 5.000000
v -5.000000 -1.582299 -5.000000
v -4.630957 30.484192 -5.369043
v 3.709160 0.512524 5.000000
v 3.709160 29.193352 5.000000
v 4.042262 0.179422 -5.000000
v 4.042262 21.441532 -5.000000
v -5.000000 -1.582299 5.000000
v -5.000000 30.484192 5.000000
v 5.000000 30.484192 5.000000
v 5.000000 -1.582299 5.000000
v -3.709160 3.907577 7.423459
v -3.709160 27.381554 7.423459
v 3.709160 27.381554 7.423459
v 3.709160 0.512524 7.423459
v -5.000000 14.852939 5.000000
v -5.000000 14.852939 -5.000000
v 4.042262 11.691664 -5.000000
v 5.000000 11.691664 5.000000
v -3.709160 14.852940 5.000000
v 3.709160 14.852939 5.000000
v -3.709160 14.852940 7.423459
v 3.709160 14.852939 7.423459
v 5.000000 12.386909 -4.011842
v 5.000000 29.496033 -4.011842
v 5.000000 29.496033 4.011842
v 5.000000 12.386909 4.011842
v 6.467698 29.496033 -4.011842
v 6.467698 15.841096 -4.011842
v 6.467698 15.841096 4.011842
v 6.467698 29.496033 4.011842
v 6.467698 16.300652 -3.552285
v 6.467698 29.036476 -3.552285
v 6.467698 29.036476 3.552285
v 6.467698 16.300652 3.552285
v 7.026195 29.036476 -3.552285
v 7.026195 19.271572 -3.552285
v 7.026195 19.271572 3.552285
v 7.026195 29.036476 3.552285
v -5.000000 15.519930 4.333009
v -5.000000 29.817200 4.333009
v -5.000000 29.817200 -4.333009
v -5.000000 15.519930 -4.333009
v -5.000000 -0.111324 4.333009
v -5.000000 14.185946 4.333009
v -5.000000 14.185946 -4.333009
v -5.000000 -0.111324 -4.333009
v -5.867785 15.519930 4.333009
v -5.867785 29.817200 4.333009
v -5.867785 15.519930 -4.333009
v -5.867785 29.817200 -4.333009
v -5.867785 -0.111324 4.333009
v -5.867785 14.185946 4.333009
v -5.867785 -0.111324 -4.333009
v -5.867785 14.185946 -4.333009
v -5.867785 16.002636 3.850302
v -5.867785 29.334496 3.850302
v -5.867785 29.334496 -3.850302
v -5.867785 16.002636 -3.850302
v -5.426323 16.760670 3.412454
v -5.426323 28.576458 3.412454
v -5.426323 16.760670 -3.412454
v -5.426323 28.576458 -3.412454
v -5.867785 0.352146 3.869539
v -5.867785 13.722477 3.869539
v -5.867785 13.722477 -3.869539
v -5.867785 0.352146 -3.869539
v -7.411198 0.352146 3.869539
v -7.411198 13.722477 3.869539
v -7.411198 0.352146 -3.869539
v -7.411198 13.722477 -3.869539
v 4.427480 30.484192 -4.427480
v -4.427480 30.484192 -4.427480
v -4.427480 30.484192 4.427480
v 4.427480 30.484192 4.427480
v -4.110837 31.666935 -4.110837
v 4.110837 31.666935 -4.110837
v 4.110837 31.666935 4.110837
v -4.110837 31.666935 4.110837
v 2.868574 31.666935 -2.868574
v -3.703197 31.666935 -2.868574
v -3.703197 31.666935 2.868574
v 2.868574 31.666935 2.868574
v -3.703197 33.461441 -2.868574
v 2.868574 33.461441 -2.868574
v 2.868574 33.461441 2.868574
v -3.703197 33.461441 2.868574
v 1.704684 33.461441 -1.704684
v -1.704684 33.461441 -1.704684
v -1.704684 33.461441 1.704684
v 1.704684 33.461441 1.704684
v -1.616416 32.999573 -1.616416
v 1.616416 32.999573 -1.616416
v 1.616416 32.999573 1.616416
v -1.616416 32.999573 1.616416
v 1.217370 32.999573 -1.217370
v -1.217370 32.999573 -1.217370
v -1.217370 32.999573 1.217370
v 1.217370 32.999573 1.217370
v -1.217370 33.857937 -1.217370
v 1.217370 33.857937 -1.217370
v 1.217370 33.857937 1.217370
v -1.217370 33.857937 1.217370
v 0.957738 0.179422 -5.000000
v 0.957738 29.526455 -5.000000
v 0.000000 -1.582299 5.000000
v 0.000000 30.484192 5.000000
v 0.000000 0.512524 5.000000
v 0.000000 29.193352 5.000000
v 0.000000 0.512524 7.423459
v 0.000000 27.381554 7.423459
v 0.000000 14.852939 7.423459
v 0.000000 13.272301 -5.000000
v 0.000000 30.484192 -4.427480
v 0.000000 30.484192 4.427480
v 0.000000 31.666935 -4.110837
v 0.000000 31.666935 4.110837
v 0.000000 31.666935 -2.868574
v 0.000000 31.666935 2.868574
v 0.000000 33.461441 -2.868574
v 0.000000 33.461441 2.868574
v 0.000000 33.461441 -1.704684
v 0.000000 33.461441 1.704684
v 0.000000 32.999573 -1.616416
v 0.000000 32.999573 1.616416
v 0.000000 32.999573 -1.217370
v 0.000000 32.999573 1.217370
v 0.000000 33.857937 -1.217370
v 0.000000 33.857937 1.217370
v -0.369043 30.484192 -5.369043
v 5.000000 30.484192 -5.000000
v 5.000000 11.691664 -5.000000
v 5.000000 -1.582299 -5.000000
v 0.000000 -1.582299 -5.000000
v 0.957738 13.272301 -5.000000
v 0.957738 13.272301 -6.049994
v 4.042262 11.691664 -6.049994
v 0.957738 29.526455 -6.049994
v 4.042262 21.441532 -6.049994
v 4.042262 0.179422 -6.049994
v 0.957738 0.179422 -6.049994
v -5.000000 14.852939 -7.350760
v -5.000000 -0.778316 -7.350760
v 0.000000 -0.778316 -7.350760
v -4.630957 30.484192 -6.981716
v -0.369043 30.484192 -6.981716
v 0.000000 13.272301 -7.350760
v -5.000000 30.484192 -5.000000
v 0.000000 30.484192 -5.000000
v -5.000000 30.484192 -7.350760
v 0.000000 30.484192 -7.350760
v -4.348884 30.211746 -5.651117
v -0.651116 30.211746 -5.651117
v -4.348884 30.211746 -6.699643
v -0.651116 30.211746 -6.699643
v -4.630957 30.211746 -5.369043
v -0.369043 30.211746 -5.369043
v -4.630957 30.211746 -6.981716
v -0.369043 30.211746 -6.981716
v -4.348884 30.664406 -5.651117
v -0.651116 30.664406 -5.651117
v -4.348884 30.664406 -6.699643
v -0.651116 30.664406 -6.699643
vn -0.0000 -5.0000 -0.0000
vn -5.0000 -0.0000 -0.0000
vn -0.0000 -0.0000 5.0000
vn -0.0000 4.0046 2.9939
vn -0.0000 1.2931 4.8299
vn 5.0000 -0.0000 -0.0000
vn 4.6716 1.7823 -0.0000
vn -0.0000 -0.0000 -5.0000
vn -0.0000 5.0000 -0.0000
vn 4.6018 -1.9553 -0.0000
vn 4.9139 -0.9238 -0.0000
vn -3.5210 -0.0000 3.5500
vn -4.3207 2.5163 -0.0000
vn -4.3207 -2.5163 -0.0000
vn -3.5210 -0.0000 -3.5500
vn 4.8299 1.2931 -0.0000
vn -4.8299 1.2931 -0.0000
vn -0.0000 1.2931 -4.8299
vn 4.9111 0.9386 -0.0000
vn -0.0000 0.9386 4.9111
vn -0.0000 0.9386 -4.9111
vn -4.9111 0.9386 -0.0000
vn -3.3759 -3.6883 -0.0000
vn -0.0000 -4.7310 -1.6180
vn 0.0001 5.0000 -0.0000
vn -0.0001 5.0000 -0.0000
vt 0.385323 0.967729
vt 0.614677 0.967729
vt 0.375000 0.250000
vt 0.125000 0.500000
vt 0.865774 0.500000
vt 0.385323 0.782271
vt 0.614677 0.782271
vt 0.384262 0.476057
vt 0.618444 0.476057
vt 0.375000 1.000000
vt 0.375000 0.000000
vt 0.625000 1.000000
vt 0.625000 0.000000
vt 0.875000 0.750000
vt 0.625000 0.750000
vt 0.375000 0.750000
vt 0.385323 0.967729
vt 0.614677 0.967729
vt 0.614677 0.782271
vt 0.385323 0.782271
vt 0.500000 1.000000
vt 0.500000 0.000000
vt 0.500000 0.250000
vt 0.497920 0.476057
vt 0.500000 0.750000
vt 0.500000 0.967729
vt 0.500000 0.782271
vt 0.500000 0.967729
vt 0.500000 0.782271
vt 0.507902 0.524704
vt 0.617098 0.524704
vt 0.617098 0.725296
vt 0.507902 0.725296
vt 0.617098 0.524704
vt 0.507902 0.524704
vt 0.507902 0.725296
vt 0.617098 0.725296
vt 0.511577 0.536193
vt 0.613423 0.536193
vt 0.613423 0.713807
vt 0.511577 0.713807
vt 0.613423 0.536193
vt 0.511577 0.536193
vt 0.511577 0.713807
vt 0.613423 0.713807
vt 0.505334 0.016675
vt 0.619666 0.016675
vt 0.619666 0.233325
vt 0.505334 0.233325
vt 0.380334 0.016675
vt 0.494666 0.016675
vt 0.494666 0.233325
vt 0.380334 0.233325
vt 0.505334 0.016675
vt 0.619666 0.016675
vt 0.505334 0.233325
vt 0.619666 0.233325
vt 0.380334 0.016675
vt 0.494666 0.016675
vt 0.380334 0.233325
vt 0.494666 0.233325
vt 0.509194 0.028742
vt 0.615806 0.028742
vt 0.615806 0.221258
vt 0.509194 0.221258
vt 0.509194 0.028742
vt 0.615806 0.028742
vt 0.509194 0.221258
vt 0.615806 0.221258
vt 0.384040 0.028262
vt 0.490960 0.028262
vt 0.490960 0.221738
vt 0.384040 0.221738
vt 0.384040 0.028262
vt 0.490960 0.028262
vt 0.384040 0.221738
vt 0.490960 0.221738
vt 0.647229 0.522229
vt 0.852771 0.522229
vt 0.852771 0.727771
vt 0.647229 0.727771
vt 0.852771 0.522229
vt 0.647229 0.522229
vt 0.647229 0.727771
vt 0.852771 0.727771
vt 0.678286 0.553286
vt 0.821714 0.553286
vt 0.821714 0.696714
vt 0.678286 0.696714
vt 0.821714 0.553286
vt 0.678286 0.553286
vt 0.678286 0.696714
vt 0.821714 0.696714
vt 0.707383 0.582383
vt 0.792617 0.582383
vt 0.792617 0.667617
vt 0.707383 0.667617
vt 0.792617 0.582383
vt 0.707383 0.582383
vt 0.707383 0.667617
vt 0.792617 0.667617
vt 0.717904 0.592904
vt 0.782096 0.592904
vt 0.782096 0.657096
vt 0.717904 0.657096
vt 0.782096 0.592904
vt 0.717904 0.592904
vt 0.717904 0.657096
vt 0.782096 0.657096
vt 0.383852 0.398943
vt 0.618232 0.398943
vt 0.375000 0.875000
vt 0.750000 0.750000
vt 0.625000 0.875000
vt 0.385323 0.875000
vt 0.614677 0.875000
vt 0.385323 0.875000
vt 0.614677 0.875000
vt 0.500000 0.875000
vt 0.500000 0.375000
vt 0.750000 0.522229
vt 0.750000 0.727771
vt 0.750000 0.522229
vt 0.750000 0.727771
vt 0.750000 0.553286
vt 0.750000 0.696714
vt 0.750000 0.553286
vt 0.750000 0.696714
vt 0.750000 0.582383
vt 0.750000 0.667617
vt 0.750000 0.582383
vt 0.750000 0.667617
vt 0.750000 0.592904
vt 0.750000 0.657096
vt 0.750000 0.592904
vt 0.750000 0.657096
vt 0.759226 0.500000
vt 0.625000 0.500000
vt 0.500000 0.500000
vt 0.375000 0.500000
vt 0.250000 0.500000
vt 0.375000 0.375000
vt 0.502095 0.398943
vt 0.502095 0.398943
vt 0.497920 0.476057
vt 0.618232 0.398943
vt 0.618444 0.476057
vt 0.384262 0.476057
vt 0.383852 0.398943
vt 0.500000 0.250000
vt 0.375000 0.250000
vt 0.125000 0.500000
vt 0.375000 0.375000
vt 0.250000 0.500000
vt 0.865774 0.500000
vt 0.759226 0.500000
vt 0.500000 0.375000
vt 0.625000 0.250000
vt 0.875000 0.500000
vt 0.625000 0.375000
vt 0.750000 0.500000
vt 0.625000 0.250000
vt 0.875000 0.500000
vt 0.625000 0.375000
vt 0.750000 0.500000
vt 0.858722 0.500000
vt 0.766278 0.500000
vt 0.858722 0.500000
vt 0.766278 0.500000
vt 0.865774 0.500000
vt 0.759226 0.500000
vt 0.865774 0.500000
vt 0.759226 0.500000
vt 0.858722 0.500000
vt 0.766278 0.500000
vt 0.858722 0.500000
vt 0.766278 0.500000
s 0
f 41/46/1 51/56/1 44/49/1
f 106/111/2 137/144/2 136/143/2
f 27/32/3 31/36/3 32/37/3
f 2/2/4 112/118/4 110/116/4
f 116/122/5 79/84/5 118/124/5
f 2/2/3 17/21/3 21/26/3
f 5/6/3 20/25/3 22/27/3
f 109/115/3 9/10/3 107/112/3
f 6/7/3 108/114/3 110/116/3
f 112/118/3 23/28/3 113/119/3
f 22/27/6 15/19/6 24/29/6
f 5/6/1 111/117/1 109/115/1
f 1/1/2 23/28/2 21/26/2
f 21/26/2 14/18/2 2/2/2
f 22/27/6 16/20/6 5/6/6
f 113/119/3 13/17/3 111/117/3
f 22/27/3 11/15/3 6/7/3
f 1/1/3 17/21/3 9/10/3
f 133/139/6 12/16/6 134/140/6
f 8/9/7 139/146/7 106/111/7
f 44/49/8 52/57/8 43/48/8
f 133/139/6 26/31/6 25/30/6
f 11/15/6 26/31/6 132/138/6
f 20/25/6 27/32/6 11/15/6
f 133/139/6 28/33/6 20/25/6
f 35/40/9 37/42/9 34/39/9
f 25/30/10 31/36/10 28/33/10
f 27/32/9 29/34/9 26/31/9
f 26/31/8 30/35/8 25/30/8
f 29/34/6 33/38/6 30/35/6
f 32/37/6 34/39/6 29/34/6
f 31/36/6 35/40/6 32/37/6
f 30/35/6 36/41/6 31/36/6
f 37/42/6 39/44/6 38/43/6
f 34/39/8 38/43/8 33/38/8
f 35/40/3 39/44/3 40/45/3
f 33/38/11 39/44/11 36/41/11
f 10/13/2 41/46/2 17/22/2
f 149/158/2 42/47/2 10/13/2
f 18/23/2 43/48/2 149/158/2
f 17/22/2 44/49/2 18/23/2
f 17/22/2 45/50/2 9/11/2
f 18/23/2 46/51/2 17/22/2
f 18/23/2 48/53/2 47/52/2
f 9/11/2 48/53/2 3/3/2
f 60/65/12 64/69/12 59/64/12
f 67/72/9 70/75/9 66/71/9
f 47/52/9 54/59/9 46/51/9
f 46/51/3 53/58/3 45/50/3
f 43/48/9 50/55/9 42/47/9
f 48/53/8 56/61/8 47/52/8
f 42/47/3 49/54/3 41/46/3
f 45/50/1 55/60/1 48/53/1
f 50/55/2 57/62/2 49/54/2
f 52/57/2 58/63/2 50/55/2
f 51/56/2 59/64/2 52/57/2
f 49/54/2 60/65/2 51/56/2
f 62/67/2 63/68/2 61/66/2
f 57/62/13 63/68/13 60/65/13
f 59/64/14 62/67/14 58/63/14
f 58/63/15 61/66/15 57/62/15
f 54/59/2 65/70/2 53/58/2
f 56/61/2 66/71/2 54/59/2
f 55/60/2 67/72/2 56/61/2
f 53/58/2 68/73/2 55/60/2
f 70/75/2 71/76/2 69/74/2
f 66/71/3 69/74/3 65/70/3
f 68/73/8 72/77/8 67/72/8
f 65/70/1 71/76/1 68/73/1
f 150/161/9 74/79/9 115/121/9
f 10/14/9 74/79/9 149/159/9
f 108/113/9 76/81/9 116/122/9
f 132/138/9 76/81/9 11/15/9
f 84/89/3 122/128/3 120/126/3
f 73/78/16 79/84/16 76/81/16
f 75/80/17 77/82/17 74/79/17
f 115/121/18 77/82/18 117/123/18
f 117/123/9 82/87/9 119/125/9
f 80/85/9 82/87/9 77/82/9
f 118/124/9 84/89/9 120/126/9
f 78/83/9 84/89/9 79/84/9
f 91/96/19 93/98/19 90/95/19
f 81/86/6 87/92/6 84/89/6
f 83/88/2 85/90/2 82/87/2
f 82/87/8 121/127/8 119/125/8
f 121/127/9 90/95/9 123/129/9
f 88/93/9 90/95/9 85/90/9
f 122/128/9 92/97/9 124/130/9
f 86/91/9 92/97/9 87/92/9
f 100/105/3 130/136/3 128/134/3
f 123/129/20 93/98/20 125/131/20
f 124/130/21 95/100/21 126/132/21
f 89/94/22 95/100/22 92/97/22
f 125/131/9 98/103/9 127/133/9
f 96/101/9 98/103/9 93/98/9
f 126/132/9 100/105/9 128/134/9
f 94/99/9 100/105/9 95/100/9
f 101/106/9 130/136/9 129/135/9
f 97/102/6 103/108/6 100/105/6
f 99/104/2 101/106/2 98/103/2
f 98/103/8 129/135/8 127/133/8
f 127/133/8 102/107/8 97/102/8
f 129/135/9 103/108/9 102/107/9
f 126/132/9 99/104/9 96/101/9
f 125/131/9 97/102/9 94/99/9
f 124/130/21 96/101/21 91/96/21
f 123/129/20 94/99/20 89/94/20
f 128/134/3 104/109/3 99/104/3
f 122/128/9 91/96/9 88/93/9
f 121/127/9 89/94/9 86/91/9
f 119/125/8 86/91/8 81/86/8
f 118/124/9 83/88/9 80/85/9
f 117/123/9 81/86/9 78/83/9
f 115/121/18 78/83/18 73/78/18
f 120/126/3 88/93/3 83/88/3
f 108/113/9 75/80/9 10/14/9
f 150/161/9 73/78/9 132/138/9
f 114/120/6 145/153/6 148/157/6
f 24/29/3 111/117/3 16/20/3
f 109/115/23 13/17/23 1/1/23
f 15/19/3 113/119/3 24/29/3
f 2/2/3 108/114/3 10/12/3
f 5/6/3 107/112/3 12/16/3
f 116/122/5 80/85/5 75/80/5
f 110/116/4 15/19/4 6/7/4
f 18/23/2 144/151/2 3/3/2
f 106/111/8 132/138/8 8/9/8
f 7/8/8 133/139/8 134/140/8
f 8/9/8 133/139/8 19/24/8
f 7/8/8 135/142/8 105/110/8
f 105/110/8 114/120/8 136/143/8
f 106/111/8 114/120/8 150/160/8
f 137/144/8 140/147/8 138/145/8
f 142/149/8 138/145/8 141/148/8
f 105/110/1 141/148/1 7/8/1
f 7/8/6 138/145/6 19/24/6
f 136/143/2 142/149/2 105/110/2
f 19/24/6 140/147/6 8/9/6
f 144/151/8 148/157/8 145/153/8
f 143/150/8 152/164/8 148/157/8
f 3/4/24 145/154/24 135/141/24
f 114/120/6 152/164/6 150/160/6
f 149/158/2 143/150/2 18/23/2
f 4/5/6 159/172/6 146/155/6
f 4/5/9 150/161/9 131/137/9
f 147/156/9 151/163/9 146/155/9
f 131/137/9 152/165/9 147/156/9
f 146/155/9 149/159/9 4/5/9
f 155/168/8 164/177/8 156/169/8
f 146/155/3 160/173/3 147/156/3
f 147/156/2 158/171/2 131/137/2
f 131/137/8 157/170/8 4/5/8
f 154/167/9 157/170/9 158/171/9
f 156/169/9 159/172/9 155/168/9
f 156/169/25 158/171/25 160/173/25
f 155/168/25 157/170/25 153/166/25
f 162/175/9 163/176/9 161/174/9
f 156/169/6 162/175/6 154/167/6
f 154/167/3 161/174/3 153/166/3
f 153/166/2 163/176/2 155/168/2
f 41/46/1 49/54/1 51/56/1
f 106/111/2 139/146/2 137/144/2
f 27/32/3 28/33/3 31/36/3
f 2/2/4 14/18/4 112/118/4
f 116/122/5 76/81/5 79/84/5
f 2/2/3 10/12/3 17/21/3
f 5/6/3 12/16/3 20/25/3
f 109/115/3 1/1/3 9/10/3
f 6/7/3 11/15/3 108/114/3
f 112/118/3 14/18/3 23/28/3
f 22/27/6 6/7/6 15/19/6
f 5/6/1 16/20/1 111/117/1
f 1/1/2 13/17/2 23/28/2
f 21/26/2 23/28/2 14/18/2
f 22/27/6 24/29/6 16/20/6
f 113/119/3 23/28/3 13/17/3
f 22/27/3 20/25/3 11/15/3
f 1/1/3 21/26/3 17/21/3
f 133/139/6 20/25/6 12/16/6
f 8/9/7 140/147/7 139/146/7
f 44/49/8 51/56/8 52/57/8
f 133/139/6 132/138/6 26/31/6
f 11/15/6 27/32/6 26/31/6
f 20/25/6 28/33/6 27/32/6
f 133/139/6 25/30/6 28/33/6
f 35/40/9 40/45/9 37/42/9
f 25/30/10 30/35/10 31/36/10
f 27/32/9 32/37/9 29/34/9
f 26/31/8 29/34/8 30/35/8
f 29/34/6 34/39/6 33/38/6
f 32/37/6 35/40/6 34/39/6
f 31/36/6 36/41/6 35/40/6
f 30/35/6 33/38/6 36/41/6
f 37/42/6 40/45/6 39/44/6
f 34/39/8 37/42/8 38/43/8
f 35/40/3 36/41/3 39/44/3
f 33/38/11 38/43/11 39/44/11
f 10/13/2 42/47/2 41/46/2
f 149/158/2 43/48/2 42/47/2
f 18/23/2 44/49/2 43/48/2
f 17/22/2 41/46/2 44/49/2
f 17/22/2 46/51/2 45/50/2
f 18/23/2 47/52/2 46/51/2
f 18/23/2 3/3/2 48/53/2
f 9/11/2 45/50/2 48/53/2
f 60/65/12 63/68/12 64/69/12
f 67/72/9 72/77/9 70/75/9
f 47/52/9 56/61/9 54/59/9
f 46/51/3 54/59/3 53/58/3
f 43/48/9 52/57/9 50/55/9
f 48/53/8 55/60/8 56/61/8
f 42/47/3 50/55/3 49/54/3
f 45/50/1 53/58/1 55/60/1
f 50/55/2 58/63/2 57/62/2
f 52/57/2 59/64/2 58/63/2
f 51/56/2 60/65/2 59/64/2
f 49/54/2 57/62/2 60/65/2
f 62/67/2 64/69/2 63/68/2
f 57/62/13 61/66/13 63/68/13
f 59/64/14 64/69/14 62/67/14
f 58/63/15 62/67/15 61/66/15
f 54/59/2 66/71/2 65/70/2
f 56/61/2 67/72/2 66/71/2
f 55/60/2 68/73/2 67/72/2
f 53/58/2 65/70/2 68/73/2
f 70/75/2 72/77/2 71/76/2
f 66/71/3 70/75/3 69/74/3
f 68/73/8 71/76/8 72/77/8
f 65/70/1 69/74/1 71/76/1
f 150/161/9 149/159/9 74/79/9
f 10/14/9 75/80/9 74/79/9
f 108/113/9 11/15/9 76/81/9
f 132/138/9 73/78/9 76/81/9
f 84/89/3 87/92/3 122/128/3
f 73/78/16 78/83/16 79/84/16
f 75/80/17 80/85/17 77/82/17
f 115/121/18 74/79/18 77/82/18
f 117/123/9 77/82/9 82/87/9
f 80/85/9 83/88/9 82/87/9
f 118/124/9 79/84/9 84/89/9
f 78/83/9 81/86/9 84/89/9
f 91/96/19 96/101/19 93/98/19
f 81/86/6 86/91/6 87/92/6
f 83/88/2 88/93/2 85/90/2
f 82/87/8 85/90/8 121/127/8
f 121/127/9 85/90/9 90/95/9
f 88/93/9 91/96/9 90/95/9
f 122/128/9 87/92/9 92/97/9
f 86/91/9 89/94/9 92/97/9
f 100/105/3 103/108/3 130/136/3
f 123/129/20 90/95/20 93/98/20
f 124/130/21 92/97/21 95/100/21
f 89/94/22 94/99/22 95/100/22
f 125/131/9 93/98/9 98/103/9
f 96/101/25 99/104/25 98/103/25
f 126/132/9 95/100/9 100/105/9
f 94/99/26 97/102/26 100/105/26
f 101/106/9 104/109/9 130/136/9
f 97/102/6 102/107/6 103/108/6
f 99/104/2 104/109/2 101/106/2
f 98/103/8 101/106/8 129/135/8
f 127/133/8 129/135/8 102/107/8
f 129/135/9 130/136/9 103/108/9
f 126/132/9 128/134/9 99/104/9
f 125/131/9 127/133/9 97/102/9
f 124/130/21 126/132/21 96/101/21
f 123/129/20 125/131/20 94/99/20
f 128/134/3 130/136/3 104/109/3
f 122/128/9 124/130/9 91/96/9
f 121/127/9 123/129/9 89/94/9
f 119/125/8 121/127/8 86/91/8
f 118/124/9 120/126/9 83/88/9
f 117/123/9 119/125/9 81/86/9
f 115/121/18 117/123/18 78/83/18
f 120/126/3 122/128/3 88/93/3
f 108/113/9 116/122/9 75/80/9
f 150/161/9 115/121/9 73/78/9
f 114/120/6 135/142/6 145/153/6
f 24/29/3 113/119/3 111/117/3
f 109/115/23 111/117/23 13/17/23
f 15/19/3 112/118/3 113/119/3
f 2/2/3 110/116/3 108/114/3
f 5/6/3 109/115/3 107/112/3
f 116/122/5 118/124/5 80/85/5
f 110/116/4 112/118/4 15/19/4
f 18/23/2 143/150/2 144/151/2
f 106/111/8 150/160/8 132/138/8
f 7/8/8 19/24/8 133/139/8
f 8/9/8 132/138/8 133/139/8
f 7/8/8 134/140/8 135/142/8
f 105/110/8 135/142/8 114/120/8
f 106/111/8 136/143/8 114/120/8
f 137/144/8 139/146/8 140/147/8
f 142/149/8 137/144/8 138/145/8
f 105/110/1 142/149/1 141/148/1
f 7/8/6 141/148/6 138/145/6
f 136/143/2 137/144/2 142/149/2
f 19/24/6 138/145/6 140/147/6
f 144/151/8 143/150/8 148/157/8
f 143/150/8 151/162/8 152/164/8
f 3/4/24 144/152/24 145/154/24
f 114/120/6 148/157/6 152/164/6
f 149/158/2 151/162/2 143/150/2
f 4/5/6 157/170/6 159/172/6
f 4/5/9 149/159/9 150/161/9
f 147/156/9 152/165/9 151/163/9
f 131/137/26 150/161/26 152/165/26
f 146/155/25 151/163/25 149/159/25
f 155/168/8 163/176/8 164/177/8
f 146/155/3 159/172/3 160/173/3
f 147/156/2 160/173/2 158/171/2
f 131/137/8 158/171/8 157/170/8
f 154/167/9 153/166/9 157/170/9
f 156/169/9 160/173/9 159/172/9
f 156/169/26 154/167/26 158/171/26
f 155/168/26 159/172/26 157/170/26
f 162/175/9 164/177/9 163/176/9
f 156/169/6 164/177/6 162/175/6
f 154/167/3 162/175/3 161/174/3
f 153/166/2 161/174/2 163/176/2
