# Blender 3.1.0
# www.blender.org
mtllib Road1.mtl
o Plane.001
v -6.881334 -2.085003 8.051353
v -6.881335 -2.085003 -15.948647
v -8.881334 -2.085003 8.051353
v -8.881335 -2.085003 -15.948647
v -6.881334 -2.085003 -4.950854
v -6.881334 -2.085003 -2.946438
v -8.881334 -2.085003 -2.946437
v -8.881334 -2.085003 -4.950854
v -17.883102 -2.085003 -2.946437
v -17.883102 -2.085003 -4.950854
v -15.879544 -2.085003 -2.946437
v -15.879544 -2.085003 -4.950854
v -17.883104 -2.085003 -23.916843
v -15.879545 -2.085003 -23.916843
v -17.883104 -2.085003 -21.948055
v -15.879545 -2.085003 -21.948055
v 1.104923 -2.085003 -23.916843
v 1.104923 -2.085003 -21.948055
v -27.847324 -2.085003 -23.916842
v -27.847324 -2.085003 -21.948053
v -17.883102 -2.085003 14.911581
v -15.879544 -2.085003 14.911581
v -23.859119 -2.085003 -14.948949
v -23.859119 -2.085003 -12.930263
v -17.883102 -2.085003 -12.930263
v -17.883102 -2.085003 -14.948949
v -15.879545 -2.085003 -14.948949
v -15.879545 -2.085003 -12.930263
v -21.873667 -2.085003 -12.930263
v -21.873667 -2.085003 -14.948949
v -23.859119 -2.085003 15.970521
v -21.873667 -2.085003 15.970521
v -0.900188 -2.085003 -23.916843
v -0.900187 -2.085003 -21.948055
v 1.104923 -2.085003 -16.975000
v -0.900187 -2.085003 -16.975000
v -6.881335 -2.085003 -13.907819
v -8.881335 -2.085003 -13.907819
v 6.072828 -2.085003 -15.948647
v 6.072828 -2.085003 -13.907819
v 1.104923 -2.085003 -18.952475
v -0.900187 -2.085003 -18.952475
v 8.083495 -2.085003 -16.975000
v 8.083495 -2.085003 -18.952475
v 17.089010 -2.085003 -4.950855
v 17.089010 -2.085003 -2.946438
v -6.881334 -2.085003 6.068920
v -8.881334 -2.085003 6.068920
v 18.135365 -2.085003 8.051353
v 18.135365 -2.085003 6.068918
v -14.797590 0.602942 8.051354
v -14.797590 0.602942 6.068920
v -27.891493 0.602942 8.051354
v -27.891493 0.602942 6.068921
v -25.883646 0.602942 6.068920
v -25.883646 0.602942 8.051354
v -27.891493 0.602942 -17.933180
v -25.883646 0.602942 -17.933180
v -25.890066 -2.085003 -21.948053
v -25.890066 -2.085003 -23.916842
v 6.126090 -2.085003 -18.952475
v 6.126090 -2.085003 -16.975000
v 8.083495 -4.097569 -13.900454
v 6.126091 -4.097569 -13.900454
v 8.094920 -1.099734 -15.948647
v 8.094920 -1.099734 -13.907819
v 12.130261 -1.099734 -15.948647
v 12.130261 -1.099734 -13.907820
v 10.112592 -1.099734 -15.948647
v 10.112592 -1.099734 -13.907819
v 12.130263 -1.099734 16.047653
v 10.112594 -1.099734 16.047653
v 8.083496 -4.097569 8.519054
v 6.126091 -4.097569 8.519054
v -8.549570 1.574489 6.903071
v 15.450430 1.574489 6.903071
v -8.549570 1.574489 4.903071
v 15.450430 1.574489 4.903071
v 4.452639 1.574489 6.903070
v 2.448221 1.574489 6.903070
v 2.448221 1.574489 4.903071
v 4.452639 1.574489 4.903071
v 2.448222 1.574489 -4.098698
v 4.452639 1.574489 -4.098698
v 2.448222 1.574489 -2.095139
v 4.452639 1.574489 -2.095139
v 23.418627 1.574489 -4.098698
v 23.418627 1.574489 -2.095139
v 21.449839 1.574489 -4.098698
v 21.449839 1.574489 -2.095139
v 23.418627 1.574489 14.889329
v 21.449839 1.574489 14.889329
v 23.418627 1.574489 -14.062917
v 21.449839 1.574489 -14.062917
v -21.914715 1.574489 -4.098698
v -21.914715 1.574489 -2.095139
v 14.450735 1.574489 -10.074716
v 12.432047 1.574489 -10.074716
v 12.432047 1.574489 -4.098697
v 14.450733 1.574489 -4.098697
v 14.450733 1.574489 -2.095139
v 12.432047 1.574489 -2.095139
v 12.432047 1.574489 -8.089263
v 14.450735 1.574489 -8.089263
v -21.870100 1.574489 -10.074716
v -21.870100 1.574489 -8.089263
v 23.418627 1.574489 12.884218
v 21.449839 1.574489 12.884218
v 16.476784 1.574489 14.889329
v 16.476784 1.574489 12.884218
v 13.409601 1.574489 6.903071
v 13.409601 1.574489 4.903071
v 15.450431 1.574489 19.857233
v 13.409602 1.574489 19.857233
v 18.454258 1.574489 14.889329
v 18.454258 1.574489 12.884218
v 16.476784 1.574489 21.867903
v 18.454258 1.574489 21.867903
v 4.452639 1.574489 21.871147
v 2.448222 1.574489 21.871147
v -6.567135 1.574489 6.903071
v -6.567136 1.574489 4.903071
v -8.549570 1.574489 25.869066
v -6.567136 1.574489 25.869066
v -8.549570 4.262435 -1.013186
v -6.567136 4.262435 -1.013186
v -8.549570 4.262435 -14.107088
v -6.567135 4.262435 -14.107088
v -6.567135 4.262435 -12.099240
v -8.549570 4.262435 -12.099240
v 17.434965 4.262435 -14.107089
v 17.434965 4.262435 -12.099241
v 21.449839 1.574489 -12.105659
v 23.418627 1.574489 -12.105659
v 18.454256 1.574489 19.910496
v 16.476782 1.574489 19.910496
v 13.402236 -0.438076 21.867903
v 13.402236 -0.438076 19.910496
v 15.450431 2.559758 21.879326
v 13.409602 2.559758 21.879326
v 15.450431 2.559758 25.914669
v 13.409602 2.559758 25.914669
v 15.450431 2.559758 23.896997
v 13.409602 2.559758 23.896997
v -8.532372 2.559758 25.914665
v -8.532372 2.559758 23.896997
v -17.918118 -0.438076 21.867901
v -17.918119 -0.438076 19.910494
v 8.151195 -0.438076 21.867903
v 6.148790 -0.438076 21.867903
v 6.148790 -0.438076 19.910496
v 8.151195 -0.438076 19.910496
v 10.152652 -0.438076 19.910496
v 12.145858 -0.438076 19.910496
v 12.145858 -0.438076 21.867903
v 10.152652 -0.438076 21.867903
v -27.891493 0.602942 -8.037915
v -27.891493 0.602942 -10.147181
v -25.883646 0.602942 -10.147181
v -25.883646 0.602942 -8.037915
v -25.883646 0.602942 -4.026564
v -25.883646 0.602942 -2.097536
v -27.891493 0.602942 -2.097536
v -27.891493 0.602942 -4.026563
v -15.879544 -2.085003 12.887104
v -17.883102 -2.085003 12.887104
v 23.418627 1.574489 6.073643
v 23.418627 1.574489 8.037511
v 21.449839 1.574489 8.037511
v 21.449839 1.574489 6.073643
v 19.181410 -2.085003 -4.950855
v 19.181410 -2.085003 -2.946438
v 17.089010 -2.085003 2.946442
v 19.181410 -2.085003 2.946442
vn -0.0000 1.0000 -0.0000
vn 0.4136 0.9104 -0.0000
vn -0.2353 0.9719 -0.0000
vn -0.0000 -0.1235 11.9081
vn -0.0000 0.1263 11.9039
vn -0.4380 0.8990 -0.0000
vn -0.0000 0.1804 11.8031
vn -0.5563 -0.8310 -0.0000
vn -0.5477 0.8367 -0.0000
vn -0.0000 0.1686 -11.8283
vn -0.0000 0.4375 -10.7907
vn -0.0000 0.2511 -11.6156
vn -0.0000 0.2859 -11.4990
vn -0.2378 0.9713 -0.0000
vn -0.1124 0.9937 -0.0000
vn -0.7412 0.6713 -0.0000
vn -0.0000 0.2207 -11.7040
vn -0.0000 0.6055 -9.5506
vn -0.3844 0.9232 -0.0000
vn -0.1121 0.9937 -0.0000
vt 0.000000 0.000000
vt 1.000000 0.000000
vt 0.000000 1.000000
vt 1.000000 1.000000
vt 0.541759 0.000000
vt 0.458241 0.000000
vt 0.458241 1.000000
vt 0.541759 1.000000
vt 0.458241 1.000000
vt 0.541759 1.000000
vt 0.458241 1.000000
vt 0.541759 1.000000
vt 0.541759 1.000000
vt 0.541759 1.000000
vt 0.541759 1.000000
vt 0.541759 1.000000
vt 0.541759 1.000000
vt 0.541759 1.000000
vt 0.541759 1.000000
vt 0.541759 1.000000
vt 0.000000 0.000000
vt 0.458241 1.000000
vt 0.458241 1.000000
vt 0.541759 1.000000
vt 0.541759 1.000000
vt 0.541759 1.000000
vt 0.541759 1.000000
vt 0.541759 1.000000
vt 0.541759 1.000000
vt 0.541759 1.000000
vt 0.541759 1.000000
vt 0.541759 1.000000
vt 0.541759 1.000000
vt 0.541759 1.000000
vt 0.541759 1.000000
vt 0.541759 1.000000
vt 0.541759 1.000000
vt 0.914966 0.000000
vt 0.914966 1.000000
vt 1.000000 0.000000
vt 0.914966 0.000000
vt 0.541759 1.000000
vt 0.541759 1.000000
vt 0.541759 1.000000
vt 0.541759 1.000000
vt 0.541759 0.000000
vt 0.458241 0.000000
vt 0.082601 0.000000
vt 0.082601 1.000000
vt 0.000000 0.000000
vt 0.082601 0.000000
vt 0.000000 1.000000
vt 0.082601 1.000000
vt 0.000000 1.000000
vt 0.082601 1.000000
vt 0.082601 1.000000
vt 0.000000 1.000000
vt 0.000000 0.000000
vt 0.082601 1.000000
vt 0.000000 0.000000
vt 0.082601 1.000000
vt 0.000000 0.000000
vt 0.541759 1.000000
vt 0.541759 1.000000
vt 0.541759 1.000000
vt 0.541759 1.000000
vt 0.541759 1.000000
vt 0.541759 1.000000
vt 1.000000 0.000000
vt 0.914966 0.000000
vt 1.000000 0.000000
vt 0.914966 0.000000
vt 1.000000 0.000000
vt 0.914966 0.000000
vt 0.914966 0.000000
vt 0.914966 0.000000
vt 0.541759 1.000000
vt 0.541759 1.000000
vt 0.000000 0.000000
vt 1.000000 0.000000
vt 0.000000 1.000000
vt 1.000000 1.000000
vt 0.541759 0.000000
vt 0.458241 0.000000
vt 0.458241 1.000000
vt 0.541759 1.000000
vt 0.458241 1.000000
vt 0.541759 1.000000
vt 0.458241 1.000000
vt 0.541759 1.000000
vt 0.541759 1.000000
vt 0.541759 1.000000
vt 0.541759 1.000000
vt 0.541759 1.000000
vt 0.541759 1.000000
vt 0.541759 1.000000
vt 0.541759 1.000000
vt 0.541759 1.000000
vt 0.000000 0.000000
vt 0.458241 1.000000
vt 0.458241 1.000000
vt 0.541759 1.000000
vt 0.541759 1.000000
vt 0.541759 1.000000
vt 0.541759 1.000000
vt 0.541759 1.000000
vt 0.541759 1.000000
vt 0.541759 1.000000
vt 0.541759 1.000000
vt 0.541759 1.000000
vt 0.541759 1.000000
vt 0.541759 1.000000
vt 0.541759 1.000000
vt 0.541759 1.000000
vt 0.541759 1.000000
vt 0.914966 0.000000
vt 0.914966 1.000000
vt 1.000000 0.000000
vt 0.914966 0.000000
vt 0.541759 1.000000
vt 0.541759 1.000000
vt 0.541759 1.000000
vt 0.541759 1.000000
vt 0.541759 0.000000
vt 0.458241 0.000000
vt 0.082601 0.000000
vt 0.082601 1.000000
vt 0.000000 0.000000
vt 0.082601 0.000000
vt 0.000000 1.000000
vt 0.082601 1.000000
vt 0.000000 1.000000
vt 0.082601 1.000000
vt 0.082601 1.000000
vt 0.000000 1.000000
vt 0.082601 1.000000
vt 0.000000 0.000000
vt 0.082601 1.000000
vt 0.000000 0.000000
vt 0.000000 0.000000
vt 0.541759 1.000000
vt 0.541759 1.000000
vt 0.541759 1.000000
vt 0.541759 1.000000
vt 0.541759 1.000000
vt 0.541759 1.000000
vt 1.000000 0.000000
vt 0.914966 0.000000
vt 1.000000 0.000000
vt 0.914966 0.000000
vt 1.000000 0.000000
vt 0.914966 0.000000
vt 0.914966 0.000000
vt 0.914966 0.000000
vt 0.541759 1.000000
vt 0.541759 1.000000
vt 0.541759 1.000000
vt 0.541759 1.000000
vt 0.541759 1.000000
vt 0.541759 1.000000
vt 0.541759 1.000000
vt 0.541759 1.000000
vt 0.541759 1.000000
vt 0.541759 1.000000
vt 0.082601 1.000000
vt 0.082601 1.000000
vt 0.082601 1.000000
vt 0.082601 1.000000
vt 0.082601 1.000000
vt 0.082601 1.000000
vt 0.082601 1.000000
vt 0.082601 1.000000
vt 0.458241 1.000000
vt 0.458241 1.000000
vt 0.541759 1.000000
vt 0.541759 1.000000
vt 0.541759 1.000000
vt 0.541759 1.000000
vt 0.541759 0.000000
vt 0.458241 0.000000
vt 0.458241 0.000000
vt 0.458241 0.000000
s 0
f 6/6/1 48/49/1 47/48/1
f 8/8/1 6/6/1 5/5/1
f 2/2/1 38/39/1 37/38/1
f 12/12/1 9/9/1 11/11/1
f 8/8/1 11/11/1 7/7/1
f 16/16/1 13/13/1 15/15/1
f 30/31/1 24/25/1 29/30/1
f 34/35/1 17/17/1 33/34/1
f 60/64/1 20/20/1 59/63/1
f 166/174/1 22/23/1 165/173/1
f 27/28/1 15/15/1 26/27/1
f 26/27/1 28/29/1 27/28/1
f 12/12/1 25/26/1 10/10/1
f 26/27/1 29/30/1 25/26/1
f 24/25/1 32/33/1 29/30/1
f 16/16/1 33/34/1 14/14/1
f 42/43/1 35/36/1 41/42/1
f 37/38/1 8/8/1 5/5/1
f 37/38/1 39/40/1 2/2/1
f 34/35/1 41/42/1 18/18/1
f 62/66/1 44/45/1 61/65/1
f 6/6/1 45/46/1 5/5/1
f 47/48/1 3/3/1 1/1/1
f 1/1/1 50/51/1 47/48/1
f 48/49/2 51/52/2 3/3/2
f 55/56/1 53/54/1 56/57/1
f 52/53/1 56/57/1 51/52/1
f 160/168/3 105/110/3 159/167/3
f 13/13/1 59/63/1 15/15/1
f 58/60/4 20/21/4 59/62/4
f 35/36/1 61/65/1 41/42/1
f 62/66/5 63/67/5 43/44/5
f 40/41/6 65/69/6 39/40/6
f 70/74/1 67/71/1 69/73/1
f 66/70/1 69/73/1 65/69/1
f 70/74/1 71/75/1 68/72/1
f 64/68/1 73/77/1 63/67/1
f 80/84/1 122/127/1 121/126/1
f 82/86/1 80/84/1 79/83/1
f 76/80/1 112/117/1 111/116/1
f 86/90/1 83/87/1 85/89/1
f 82/86/1 85/89/1 81/85/1
f 90/94/1 87/91/1 89/93/1
f 104/109/1 98/103/1 103/108/1
f 108/113/1 91/95/1 107/112/1
f 134/142/1 94/98/1 133/141/1
f 85/89/1 95/100/1 96/101/1
f 101/106/1 89/93/1 100/105/1
f 100/105/1 102/107/1 101/106/1
f 86/90/1 99/104/1 84/88/1
f 100/105/1 103/108/1 99/104/1
f 98/103/1 106/111/1 103/108/1
f 116/121/1 109/114/1 115/120/1
f 111/116/1 82/86/1 79/83/1
f 111/116/1 113/118/1 76/80/1
f 108/113/1 115/120/1 92/96/1
f 136/144/1 118/123/1 135/143/1
f 80/84/1 119/124/1 79/83/1
f 121/126/1 77/81/1 75/79/1
f 75/79/1 124/129/1 121/126/1
f 122/127/7 125/130/7 77/81/7
f 129/134/1 127/132/1 130/135/1
f 126/131/1 130/135/1 125/130/1
f 129/134/1 131/136/1 128/133/1
f 87/91/1 133/141/1 89/93/1
f 132/139/8 94/99/8 133/140/8
f 109/114/1 135/143/1 115/120/1
f 136/144/9 137/145/9 117/122/9
f 114/119/10 139/147/10 113/118/10
f 144/152/1 141/149/1 143/151/1
f 140/148/1 143/151/1 139/147/1
f 144/152/1 145/153/1 142/150/1
f 153/161/1 149/157/1 156/164/1
f 151/159/1 147/155/1 150/158/1
f 150/158/1 152/160/1 151/159/1
f 156/164/1 154/162/1 153/161/1
f 138/146/1 155/163/1 137/145/1
f 153/161/11 71/75/11 72/76/11
f 151/159/12 73/77/12 74/78/12
f 147/155/13 32/33/13 31/32/13
f 159/167/1 57/59/1 158/166/1
f 158/166/1 160/168/1 159/167/1
f 161/169/14 96/101/14 95/100/14
f 161/169/1 157/165/1 164/172/1
f 164/172/1 162/170/1 161/169/1
f 55/56/1 163/171/1 54/55/1
f 9/9/1 165/173/1 11/11/1
f 165/173/15 109/114/15 110/115/15
f 169/177/1 107/112/1 168/176/1
f 168/176/1 170/178/1 169/177/1
f 90/94/1 167/175/1 88/92/1
f 169/177/16 50/51/16 49/50/16
f 46/47/1 171/179/1 45/46/1
f 46/47/1 174/182/1 172/180/1
f 116/121/17 173/181/17 110/115/17
f 145/153/18 56/57/18 53/54/18
f 38/39/1 27/28/1 28/29/1
f 6/6/1 7/7/1 48/49/1
f 8/8/1 7/7/1 6/6/1
f 2/2/1 4/4/1 38/39/1
f 12/12/1 10/10/1 9/9/1
f 8/8/1 12/12/1 11/11/1
f 16/16/1 14/14/1 13/13/1
f 30/31/1 23/24/1 24/25/1
f 34/35/1 18/18/1 17/17/1
f 60/64/1 19/19/1 20/20/1
f 166/174/1 21/22/1 22/23/1
f 27/28/1 16/16/1 15/15/1
f 26/27/1 25/26/1 28/29/1
f 12/12/1 28/29/1 25/26/1
f 26/27/1 30/31/1 29/30/1
f 24/25/1 31/32/1 32/33/1
f 16/16/1 34/35/1 33/34/1
f 42/43/1 36/37/1 35/36/1
f 37/38/1 38/39/1 8/8/1
f 37/38/1 40/41/1 39/40/1
f 34/35/1 42/43/1 41/42/1
f 62/66/1 43/44/1 44/45/1
f 6/6/1 46/47/1 45/46/1
f 47/48/1 48/49/1 3/3/1
f 1/1/1 49/50/1 50/51/1
f 48/49/2 52/53/2 51/52/2
f 55/56/1 54/55/1 53/54/1
f 52/53/1 55/56/1 56/57/1
f 160/168/3 106/111/3 105/110/3
f 13/13/1 60/64/1 59/63/1
f 58/60/4 57/58/4 20/21/4
f 35/36/1 62/66/1 61/65/1
f 62/66/5 64/68/5 63/67/5
f 40/41/6 66/70/6 65/69/6
f 70/74/1 68/72/1 67/71/1
f 66/70/1 70/74/1 69/73/1
f 70/74/1 72/76/1 71/75/1
f 64/68/1 74/78/1 73/77/1
f 80/84/1 81/85/1 122/127/1
f 82/86/1 81/85/1 80/84/1
f 76/80/1 78/82/1 112/117/1
f 86/90/1 84/88/1 83/87/1
f 82/86/1 86/90/1 85/89/1
f 90/94/1 88/92/1 87/91/1
f 104/109/1 97/102/1 98/103/1
f 108/113/1 92/96/1 91/95/1
f 134/142/1 93/97/1 94/98/1
f 85/89/1 83/87/1 95/100/1
f 101/106/1 90/94/1 89/93/1
f 100/105/1 99/104/1 102/107/1
f 86/90/1 102/107/1 99/104/1
f 100/105/1 104/109/1 103/108/1
f 98/103/1 105/110/1 106/111/1
f 116/121/1 110/115/1 109/114/1
f 111/116/1 112/117/1 82/86/1
f 111/116/1 114/119/1 113/118/1
f 108/113/1 116/121/1 115/120/1
f 136/144/1 117/122/1 118/123/1
f 80/84/1 120/125/1 119/124/1
f 121/126/1 122/127/1 77/81/1
f 75/79/1 123/128/1 124/129/1
f 122/127/7 126/131/7 125/130/7
f 129/134/1 128/133/1 127/132/1
f 126/131/1 129/134/1 130/135/1
f 129/134/1 132/138/1 131/136/1
f 87/91/1 134/142/1 133/141/1
f 132/139/8 131/137/8 94/99/8
f 109/114/1 136/144/1 135/143/1
f 136/144/9 138/146/9 137/145/9
f 114/119/10 140/148/10 139/147/10
f 144/152/1 142/150/1 141/149/1
f 140/148/1 144/152/1 143/151/1
f 144/152/1 146/154/1 145/153/1
f 153/161/1 152/160/1 149/157/1
f 151/159/1 148/156/1 147/155/1
f 150/158/1 149/157/1 152/160/1
f 156/164/1 155/163/1 154/162/1
f 138/146/1 154/162/1 155/163/1
f 153/161/11 154/162/11 71/75/11
f 151/159/12 152/160/12 73/77/12
f 147/155/19 148/156/19 32/33/19
f 159/167/1 58/61/1 57/59/1
f 158/166/1 157/165/1 160/168/1
f 161/169/14 162/170/14 96/101/14
f 161/169/1 160/168/1 157/165/1
f 164/172/1 163/171/1 162/170/1
f 55/56/1 162/170/1 163/171/1
f 9/9/1 166/174/1 165/173/1
f 165/173/15 22/23/15 109/114/15
f 169/177/1 108/113/1 107/112/1
f 168/176/1 167/175/1 170/178/1
f 90/94/1 170/178/1 167/175/1
f 169/177/16 170/178/16 50/51/16
f 46/47/1 172/180/1 171/179/1
f 46/47/1 173/181/1 174/182/1
f 116/121/17 174/182/17 173/181/17
f 145/153/20 146/154/20 56/57/20
f 38/39/1 4/4/1 27/28/1
